# 3ds Max Wavefront OBJ Exporter v0.97b - (c)2007 guruware
# File Created: 17.11.2020 21:03:16

mtllib cylinder.mtl

#
# object Cylinder001
#

v  0.0000 0.0000 -0.0000
v  11.7858 0.0000 -4.8818
v  12.5117 0.0000 -2.4887
v  12.7569 0.0000 -0.0000
v  9.0205 0.0000 -9.0205
v  10.6069 0.0000 -7.0873
v  4.8818 0.0000 -11.7858
v  7.0873 0.0000 -10.6069
v  0.0000 0.0000 -12.7569
v  2.4887 0.0000 -12.5117
v  -4.8818 0.0000 -11.7858
v  -2.4887 0.0000 -12.5117
v  -9.0205 0.0000 -9.0205
v  -7.0873 0.0000 -10.6069
v  -11.7858 0.0000 -4.8818
v  -10.6069 0.0000 -7.0873
v  -12.7569 0.0000 0.0000
v  -12.5117 0.0000 -2.4887
v  -11.7858 0.0000 4.8818
v  -12.5117 0.0000 2.4887
v  -9.0205 0.0000 9.0205
v  -10.6069 0.0000 7.0873
v  -4.8818 0.0000 11.7858
v  -7.0873 0.0000 10.6069
v  0.0000 0.0000 12.7569
v  -2.4887 0.0000 12.5117
v  4.8819 0.0000 11.7858
v  2.4888 0.0000 12.5117
v  9.0205 0.0000 9.0205
v  7.0873 0.0000 10.6069
v  11.7858 0.0000 4.8818
v  10.6070 0.0000 7.0873
v  12.5117 0.0000 2.4887
v  12.5117 160.0269 -2.4887
v  12.7569 160.0269 -0.0000
v  11.7858 160.0269 -4.8818
v  10.6069 160.0269 -7.0873
v  9.0205 160.0269 -9.0205
v  7.0873 160.0269 -10.6069
v  4.8818 160.0269 -11.7858
v  2.4887 160.0269 -12.5117
v  0.0000 160.0269 -12.7569
v  -2.4887 160.0269 -12.5117
v  -4.8818 160.0269 -11.7858
v  -7.0873 160.0269 -10.6069
v  -9.0205 160.0269 -9.0205
v  -10.6069 160.0269 -7.0873
v  -11.7858 160.0269 -4.8818
v  -12.5117 160.0269 -2.4887
v  -12.7569 160.0269 0.0000
v  -12.5117 160.0269 2.4887
v  -11.7858 160.0269 4.8818
v  -10.6069 160.0269 7.0873
v  -9.0205 160.0269 9.0205
v  -7.0873 160.0269 10.6069
v  -4.8818 160.0269 11.7858
v  -2.4887 160.0269 12.5117
v  0.0000 160.0269 12.7569
v  2.4888 160.0269 12.5117
v  4.8819 160.0269 11.7858
v  7.0873 160.0269 10.6069
v  9.0205 160.0269 9.0205
v  10.6070 160.0269 7.0873
v  11.7858 160.0269 4.8818
v  12.5117 160.0269 2.4887
v  0.0000 160.0269 -0.0000
# 66 vertices

vn 0.0000 -1.0000 -0.0000
vn 0.6724 -0.6857 -0.2785
vn 0.7139 -0.6857 -0.1420
vn 0.7278 -0.6857 -0.0000
vn 0.5147 -0.6857 -0.5147
vn 0.6052 -0.6857 -0.4044
vn 0.2785 -0.6857 -0.6724
vn 0.4044 -0.6857 -0.6052
vn 0.0000 -0.6857 -0.7279
vn 0.1420 -0.6857 -0.7139
vn -0.2786 -0.6857 -0.6725
vn -0.1420 -0.6857 -0.7139
vn -0.5147 -0.6857 -0.5147
vn -0.4044 -0.6857 -0.6052
vn -0.6725 -0.6857 -0.2786
vn -0.6052 -0.6857 -0.4044
vn -0.7279 -0.6857 0.0000
vn -0.7139 -0.6857 -0.1420
vn -0.6724 -0.6858 0.2785
vn -0.7139 -0.6857 0.1420
vn -0.5147 -0.6857 0.5147
vn -0.6052 -0.6857 0.4044
vn -0.2785 -0.6857 0.6725
vn -0.4044 -0.6857 0.6052
vn 0.0000 -0.6857 0.7279
vn -0.1420 -0.6857 0.7139
vn 0.2786 -0.6857 0.6725
vn 0.1420 -0.6857 0.7139
vn 0.5147 -0.6857 0.5147
vn 0.4044 -0.6857 0.6052
vn 0.6725 -0.6857 0.2785
vn 0.6052 -0.6857 0.4044
vn 0.7139 -0.6857 0.1420
vn 0.7139 0.6857 -0.1420
vn 0.7278 0.6857 -0.0000
vn 0.6724 0.6857 -0.2785
vn 0.6052 0.6857 -0.4044
vn 0.5147 0.6857 -0.5147
vn 0.4044 0.6857 -0.6052
vn 0.2785 0.6857 -0.6724
vn 0.1420 0.6857 -0.7139
vn 0.0000 0.6857 -0.7279
vn -0.1420 0.6857 -0.7139
vn -0.2786 0.6857 -0.6725
vn -0.4044 0.6857 -0.6052
vn -0.5147 0.6857 -0.5147
vn -0.6052 0.6857 -0.4044
vn -0.6725 0.6857 -0.2786
vn -0.7139 0.6857 -0.1420
vn -0.7278 0.6857 0.0000
vn -0.7139 0.6857 0.1420
vn -0.6724 0.6858 0.2785
vn -0.6052 0.6857 0.4044
vn -0.5147 0.6857 0.5147
vn -0.4044 0.6857 0.6052
vn -0.2785 0.6857 0.6725
vn -0.1420 0.6857 0.7139
vn 0.0000 0.6857 0.7279
vn 0.1420 0.6857 0.7139
vn 0.2786 0.6857 0.6725
vn 0.4044 0.6857 0.6052
vn 0.5147 0.6857 0.5147
vn 0.6052 0.6857 0.4044
vn 0.6725 0.6857 0.2785
vn 0.7139 0.6857 0.1420
vn 0.0000 1.0000 -0.0000
# 66 vertex normals

vt 0.5000 0.0000 0.0000
vt 0.8125 0.0000 1.0000
vt 0.7813 0.0000 1.0000
vt 0.7500 0.0000 1.0000
vt 0.8750 0.0000 1.0000
vt 0.8438 0.0000 1.0000
vt 0.9375 0.0000 1.0000
vt 0.9063 0.0000 1.0000
vt 1.0000 0.0000 1.0000
vt 0.9688 0.0000 1.0000
vt 0.0625 0.0000 1.0000
vt 0.0313 0.0000 1.0000
vt 0.0000 0.0000 1.0000
vt 0.1250 0.0000 1.0000
vt 0.0938 0.0000 1.0000
vt 0.1875 0.0000 1.0000
vt 0.1563 0.0000 1.0000
vt 0.2500 0.0000 1.0000
vt 0.2188 0.0000 1.0000
vt 0.3125 0.0000 1.0000
vt 0.2813 0.0000 1.0000
vt 0.3750 0.0000 1.0000
vt 0.3438 0.0000 1.0000
vt 0.4375 0.0000 1.0000
vt 0.4063 0.0000 1.0000
vt 0.5000 0.0000 1.0000
vt 0.4688 0.0000 1.0000
vt 0.5625 0.0000 1.0000
vt 0.5313 0.0000 1.0000
vt 0.6250 0.0000 1.0000
vt 0.5938 0.0000 1.0000
vt 0.6875 0.0000 1.0000
vt 0.6563 0.0000 1.0000
vt 0.7188 0.0000 1.0000
vt 0.7813 1.0000 1.0000
vt 0.7500 1.0000 1.0000
vt 0.8125 1.0000 1.0000
vt 0.8438 1.0000 1.0000
vt 0.8750 1.0000 1.0000
vt 0.9063 1.0000 1.0000
vt 0.9375 1.0000 1.0000
vt 0.9688 1.0000 1.0000
vt 1.0000 1.0000 1.0000
vt 0.0313 1.0000 1.0000
vt 0.0000 1.0000 1.0000
vt 0.0625 1.0000 1.0000
vt 0.0938 1.0000 1.0000
vt 0.1250 1.0000 1.0000
vt 0.1563 1.0000 1.0000
vt 0.1875 1.0000 1.0000
vt 0.2188 1.0000 1.0000
vt 0.2500 1.0000 1.0000
vt 0.2813 1.0000 1.0000
vt 0.3125 1.0000 1.0000
vt 0.3438 1.0000 1.0000
vt 0.3750 1.0000 1.0000
vt 0.4063 1.0000 1.0000
vt 0.4375 1.0000 1.0000
vt 0.4688 1.0000 1.0000
vt 0.5000 1.0000 1.0000
vt 0.5313 1.0000 1.0000
vt 0.5625 1.0000 1.0000
vt 0.5938 1.0000 1.0000
vt 0.6250 1.0000 1.0000
vt 0.6563 1.0000 1.0000
vt 0.6875 1.0000 1.0000
vt 0.7188 1.0000 1.0000
vt 0.5000 1.0000 0.0000
vt 1.0120 1.0000 0.9616
# 69 texture coords

o Cylinder001
g Cylinder001
usemtl wire_008008136
s 1
f 1/1/1 2/2/2 3/3/3 4/4/4 
f 1/1/1 5/5/5 6/6/6 2/2/2 
f 1/1/1 7/7/7 8/8/8 5/5/5 
f 1/1/1 9/9/9 10/10/10 7/7/7 
f 1/1/1 11/11/11 12/12/12 9/13/9 
f 1/1/1 13/14/13 14/15/14 11/11/11 
f 1/1/1 15/16/15 16/17/16 13/14/13 
f 1/1/1 17/18/17 18/19/18 15/16/15 
f 1/1/1 19/20/19 20/21/20 17/18/17 
f 1/1/1 21/22/21 22/23/22 19/20/19 
f 1/1/1 23/24/23 24/25/24 21/22/21 
f 1/1/1 25/26/25 26/27/26 23/24/23 
f 1/1/1 27/28/27 28/29/28 25/26/25 
f 1/1/1 29/30/29 30/31/30 27/28/27 
f 1/1/1 31/32/31 32/33/32 29/30/29 
f 1/1/1 4/4/4 33/34/33 31/32/31 
s 8
f 4/4/4 3/3/3 34/35/34 35/36/35 
f 3/3/3 2/2/2 36/37/36 34/35/34 
f 2/2/2 6/6/6 37/38/37 36/37/36 
f 6/6/6 5/5/5 38/39/38 37/38/37 
f 5/5/5 8/8/8 39/40/39 38/39/38 
f 8/8/8 7/7/7 40/41/40 39/40/39 
f 7/7/7 10/10/10 41/42/41 40/41/40 
f 10/10/10 9/9/9 42/43/42 41/42/41 
f 9/13/9 12/12/12 43/44/43 42/45/42 
f 12/12/12 11/11/11 44/46/44 43/44/43 
f 11/11/11 14/15/14 45/47/45 44/46/44 
f 14/15/14 13/14/13 46/48/46 45/47/45 
f 13/14/13 16/17/16 47/49/47 46/48/46 
f 16/17/16 15/16/15 48/50/48 47/49/47 
f 15/16/15 18/19/18 49/51/49 48/50/48 
f 18/19/18 17/18/17 50/52/50 49/51/49 
f 17/18/17 20/21/20 51/53/51 50/52/50 
f 20/21/20 19/20/19 52/54/52 51/53/51 
f 19/20/19 22/23/22 53/55/53 52/54/52 
f 22/23/22 21/22/21 54/56/54 53/55/53 
f 21/22/21 24/25/24 55/57/55 54/56/54 
f 24/25/24 23/24/23 56/58/56 55/57/55 
f 23/24/23 26/27/26 57/59/57 56/58/56 
f 26/27/26 25/26/25 58/60/58 57/59/57 
f 25/26/25 28/29/28 59/61/59 58/60/58 
f 28/29/28 27/28/27 60/62/60 59/61/59 
f 27/28/27 30/31/30 61/63/61 60/62/60 
f 30/31/30 29/30/29 62/64/62 61/63/61 
f 29/30/29 32/33/32 63/65/63 62/64/62 
f 32/33/32 31/32/31 64/66/64 63/65/63 
f 31/32/31 33/34/33 65/67/65 64/66/64 
f 33/34/33 4/4/4 35/36/35 65/67/65 
s 1
f 66/68/66 65/67/65 35/36/35 34/35/34 
f 66/68/66 34/35/34 36/37/36 37/38/37 
f 66/68/66 37/38/37 38/39/38 39/40/39 
f 66/68/66 39/40/39 40/41/40 41/42/41 
f 66/68/66 41/42/41 42/43/42 43/69/43 
f 66/68/66 43/44/43 44/46/44 45/47/45 
f 66/68/66 45/47/45 46/48/46 47/49/47 
f 66/68/66 47/49/47 48/50/48 49/51/49 
f 66/68/66 49/51/49 50/52/50 51/53/51 
f 66/68/66 51/53/51 52/54/52 53/55/53 
f 66/68/66 53/55/53 54/56/54 55/57/55 
f 66/68/66 55/57/55 56/58/56 57/59/57 
f 66/68/66 57/59/57 58/60/58 59/61/59 
f 66/68/66 59/61/59 60/62/60 61/63/61 
f 66/68/66 61/63/61 62/64/62 63/65/63 
f 66/68/66 63/65/63 64/66/64 65/67/65 
# 64 polygons

