# 3ds Max Wavefront OBJ Exporter v0.97b - (c)2007 guruware
# File Created: 01.12.2020 15:24:51

mtllib Pizza_OutLeft.mtl

#
# object Object002
#

v  -0.000 24.368 7.483
v  1.460 26.650 7.340
v  -0.000 26.650 7.483
v  1.460 24.368 7.340
v  2.864 26.650 6.914
v  -0.000 26.650 3.742
v  2.864 24.368 6.914
v  -0.000 24.368 3.742
v  1.432 24.368 3.457
v  1.432 26.650 3.457
# 10 vertices

vn 0.098 0.000 0.995
vn 0.195 0.000 0.981
vn 0.290 0.000 0.957
vn -0.000 1.000 -0.000
vn -1.000 -0.000 0.000
vn 0.000 -1.000 -0.000
vn 0.924 0.000 -0.383
vn -0.195 0.000 -0.981
vn -1.000 0.000 0.000
# 9 vertex normals

vt 0.500 0.000 1.000
vt 0.469 1.000 1.000
vt 0.500 1.000 1.000
vt 0.469 0.000 1.000
vt 0.438 1.000 1.000
vt 0.375 1.000 1.000
vt 0.438 0.000 1.000
vt 0.361 0.000 0.909
vt 0.330 0.000 0.909
vt 0.344 1.000 1.000
# 10 texture coords

o Object002
g Object002
usemtl wire_113135006
s 8
f 1/1/1 2/2/2 3/3/1 
f 4/4/2 5/5/3 2/2/2 
s 1
f 3/3/4 5/5/4 6/6/4 
s off
f 3/3/5 6/6/5 1/3/5 
s 1
f 7/7/6 8/8/6 9/9/6 
s off
f 10/10/7 7/5/7 9/10/7 
f 6/6/8 9/10/8 8/6/8 
s 8
f 1/1/1 4/4/2 2/2/2 
f 4/4/2 7/7/3 5/5/3 
s 1
f 3/3/4 2/2/4 5/5/4 
f 5/5/4 10/10/4 6/6/4 
s off
f 6/6/9 8/6/9 1/3/9 
s 1
f 7/7/6 4/4/6 1/1/6 
f 7/7/6 1/1/6 8/8/6 
s off
f 10/10/7 5/5/7 7/5/7 
f 6/6/8 10/10/8 9/10/8 
# 16 faces

