# 3ds Max Wavefront OBJ Exporter v0.97b - (c)2007 guruware
# File Created: 01.12.2020 15:22:33

mtllib Pizza_InLeft.mtl

#
# object Cylinder002
#

v  1.432 26.650 3.457
v  -0.000 26.650 0.000
v  -0.000 26.650 3.742
v  -0.000 24.368 0.000
v  -0.000 24.368 3.742
v  1.432 24.368 3.457
# 6 vertices

vn -0.000 1.000 -0.000
vn -1.000 0.000 0.000
vn 0.000 -1.000 -0.000
vn 0.195 -0.000 0.981
vn 0.924 -0.000 -0.383
# 5 vertex normals

vt 0.344 1.000 1.000
vt 0.250 1.000 1.000
vt 0.375 1.000 1.000
vt 0.361 0.000 0.909
vt 0.222 0.000 0.819
vt 0.330 0.000 0.909
# 6 texture coords

o Cylinder002
g Cylinder002
usemtl wire_113135006
s 1
f 1/1/1 2/2/1 3/3/1 
s off
f 2/2/2 4/2/2 5/3/2 
f 5/3/2 3/3/2 2/2/2 
s 1
f 5/4/3 4/5/3 6/6/3 
s off
f 5/4/4 6/6/4 1/6/4 
f 1/6/4 3/4/4 5/4/4 
f 1/6/5 6/6/5 4/6/5 
f 4/6/5 2/6/5 1/6/5 
# 8 faces

