# 3ds Max Wavefront OBJ Exporter v0.97b - (c)2007 guruware
# File Created: 17.11.2020 21:07:53

mtllib Pizza_OutRight.mtl

#
# object Object001
#

v  11.3976 0.0000 27.5162
v  16.5467 0.0000 24.7639
v  16.5467 9.0812 24.7639
v  11.3976 9.0813 27.5162
v  21.0600 0.0000 21.0600
v  21.0600 9.0812 21.0600
v  10.5300 9.0812 10.5300
v  5.6988 9.0812 13.7581
v  10.5300 0.0000 10.5300
v  5.6988 0.0000 13.7581
# 10 vertices

vn -0.2761 -0.5724 0.7721
vn 0.4044 -0.6857 0.6052
vn 0.4044 0.6857 0.6052
vn -0.2762 0.5724 0.7721
vn 0.8190 -0.5724 0.0402
vn 0.8190 0.5724 0.0402
vn 0.0793 0.5884 -0.8047
vn -0.7738 0.5884 -0.2347
vn 0.0793 -0.5884 -0.8047
vn -0.7737 -0.5884 -0.2349
# 10 vertex normals

vt 0.4375 0.0000 1.0000
vt 0.4063 0.0000 1.0000
vt 0.4063 1.0000 1.0000
vt 0.4375 1.0000 1.0000
vt 0.3750 0.0000 1.0000
vt 0.3750 1.0000 1.0000
vt 0.3125 1.0000 1.0000
vt 0.3438 1.0000 1.0000
vt 0.2983 0.0000 0.9094
vt 0.3295 0.0000 0.9094
# 10 texture coords

o Object001
g Object001
usemtl wire_113135006
s 8
f 1/1/1 2/2/2 3/3/3 4/4/4 
f 2/2/2 5/5/5 6/6/6 3/3/3 
s 1
f 4/4/4 3/3/3 6/6/6 7/7/7 8/8/8 
f 9/9/9 5/5/5 2/2/2 1/1/1 10/10/10 
s off
f 7/7/7 6/6/6 5/6/5 9/7/9 
f 8/8/8 7/7/7 9/7/9 10/8/10 
f 1/1/1 4/4/4 8/4/8 10/1/10 
# 7 polygons

