# 3ds Max Wavefront OBJ Exporter v0.97b - (c)2007 guruware
# File Created: 01.12.2020 15:24:33

mtllib Pizza_InRight.mtl

#
# object Object003
#

v  0.000 24.368 -0.000
v  2.646 24.368 2.646
v  1.432 24.368 3.457
v  2.646 26.650 2.646
v  -0.000 26.650 0.000
v  1.432 26.650 3.457
# 6 vertices

vn 0.000 -1.000 0.000
vn 0.707 0.000 -0.707
vn 0.000 1.000 -0.000
vn -0.924 0.000 0.383
vn -0.924 -0.000 0.383
vn 0.556 0.000 0.831
vn 0.556 -0.000 0.831
# 7 vertex normals

vt 0.222 0.000 0.819
vt 0.298 0.000 0.909
vt 0.330 0.000 0.909
vt 0.313 1.000 1.000
vt 0.250 1.000 1.000
vt 0.344 1.000 1.000
# 6 texture coords

o Object003
g Object003
usemtl wire_113135006
s 1
f 1/1/1 2/2/1 3/3/1 
s off
f 4/4/2 2/4/2 1/5/2 
f 1/5/2 5/5/2 4/4/2 
s 1
f 4/4/3 5/5/3 6/6/3 
s off
f 1/1/4 3/3/4 6/3/4 
f 6/3/5 5/1/5 1/1/5 
f 3/3/6 2/2/6 4/2/6 
f 4/2/7 6/3/7 3/3/7 
# 8 faces

