# 3ds Max Wavefront OBJ Exporter v0.97b - (c)2007 guruware
# File Created: 01.12.2020 16:07:32

mtllib Pizza.mtl

#
# object Object003
#

v  -0.000 -0.000 -0.017
v  2.646 0.000 2.629
v  1.432 0.000 3.440
v  2.646 2.282 2.629
v  -0.000 2.282 -0.017
v  1.432 2.282 3.440
v  -0.000 2.282 3.725
v  -0.000 -0.000 3.725
v  -0.000 -0.000 7.466
v  1.460 2.282 7.323
v  -0.000 2.282 7.466
v  1.460 0.000 7.323
v  2.864 2.282 6.897
v  2.864 0.000 6.897
v  4.158 0.000 6.205
v  4.158 2.282 6.205
v  5.292 0.000 5.275
v  5.292 2.282 5.275
# 18 vertices

vn 0.000 -1.000 0.000
vn 0.707 0.000 -0.707
vn -0.000 1.000 -0.000
vn -0.000 1.000 0.000
vn -1.000 -0.000 -0.000
vn -1.000 0.000 0.000
vn 0.098 0.000 0.995
vn 0.195 0.000 0.981
vn 0.383 0.000 0.924
vn -1.000 -0.000 0.000
vn 0.000 -1.000 -0.000
vn 0.556 0.000 0.831
vn 0.634 0.000 0.773
vn 0.000 1.000 0.000
# 14 vertex normals

vt 0.222 0.000 0.819
vt 0.298 0.000 0.909
vt 0.330 0.000 0.909
vt 0.313 1.000 1.000
vt 0.250 1.000 1.000
vt 0.344 1.000 1.000
vt 0.375 1.000 1.000
vt 0.361 0.000 0.909
vt 0.500 0.000 1.000
vt 0.469 1.000 1.000
vt 0.500 1.000 1.000
vt 0.469 0.000 1.000
vt 0.438 1.000 1.000
vt 0.438 0.000 1.000
vt 0.406 0.000 1.000
vt 0.406 1.000 1.000
vt 0.375 0.000 1.000
# 17 texture coords

o Object003
g Object003
usemtl wire_113135006
s 1
f 1/1/1 2/2/1 3/3/1 
s off
f 4/4/2 2/4/2 1/5/2 
f 1/5/2 5/5/2 4/4/2 
s 1
f 4/4/3 5/5/3 6/6/3 
f 6/6/3 5/5/3 7/7/4 
s off
f 5/5/5 1/5/5 8/7/5 
f 8/7/6 7/7/6 5/5/6 
s 1
f 8/8/1 1/1/1 3/3/1 
s 8
f 9/9/7 10/10/8 11/11/7 
f 12/12/8 13/13/9 10/10/8 
s 1
f 11/11/4 13/13/4 7/7/4 
s off
f 11/11/10 7/7/10 9/11/10 
s 1
f 14/14/11 8/8/1 3/3/1 
s 8
f 9/9/7 12/12/8 10/10/8 
f 12/12/8 14/14/9 13/13/9 
s 1
f 11/11/4 10/10/4 13/13/4 
f 13/13/4 6/6/3 7/7/4 
s off
f 7/7/6 8/7/6 9/11/6 
s 1
f 14/14/11 12/12/11 9/9/11 
f 14/14/11 9/9/11 8/8/1 
s 8
f 14/14/9 15/15/12 16/16/12 
f 16/16/12 13/13/9 14/14/9 
f 15/15/12 17/17/13 18/7/13 
f 18/7/13 16/16/12 15/15/12 
s 1
f 13/13/4 16/16/14 18/7/3 
f 13/13/4 18/7/3 4/4/3 
f 13/13/4 4/4/3 6/6/3 
f 17/17/11 15/15/11 14/14/11 
f 2/2/1 17/17/11 14/14/11 
f 2/2/1 14/14/11 3/3/1 
s off
f 18/7/2 17/7/2 2/4/2 
f 2/4/2 4/4/2 18/7/2 
# 32 faces

