# Blender v2.90.1 OBJ File: ''
# www.blender.org
mtllib Pizza_OutLeft.mtl
o Object002_Object002.002
v -2.829952 -0.000001 -6.927240
v -4.127439 2.281999 -6.242713
v -2.829952 2.281999 -6.927241
v -4.127438 -0.000001 -6.242712
v -5.266057 2.281999 -5.317381
v -1.415165 2.281999 -3.464083
v -5.266057 -0.000001 -5.317381
v -1.415165 -0.000001 -3.464083
v -2.633029 -0.000001 -2.658690
v -2.633029 2.282000 -2.658691
vt 0.500000 1.000000
vt 0.375000 1.000000
vt 0.500000 1.000000
vt 0.344000 1.000000
vt 0.438000 1.000000
vt 0.344000 1.000000
vt 0.375000 1.000000
vt 0.438000 1.000000
vt 0.500000 0.000000
vt 0.469000 1.000000
vt 0.469000 0.000000
vt 0.438000 0.000000
vt 0.361000 0.000000
vt 0.330000 0.000000
vn 0.9257 0.0000 -0.3782
vn -0.7103 -0.0000 0.7039
vn 0.5516 0.0000 0.8341
vn -0.4670 -0.0000 -0.8842
vn -0.5513 -0.0000 -0.8343
vn -0.4669 -0.0000 -0.8843
vn -0.6307 0.0000 -0.7760
vn -0.0000 1.0000 0.0000
vn 0.0000 -1.0000 0.0000
vn -0.6304 -0.0000 -0.7763
usemtl wire_113135006.008
s off
f 3/1/1 6/2/1 1/3/1
f 10/4/2 7/5/2 9/6/2
f 6/2/3 9/6/3 8/7/3
f 6/2/1 8/7/1 1/3/1
f 10/4/2 5/8/2 7/5/2
f 6/2/3 10/4/3 9/6/3
s 1
f 1/9/4 2/10/5 3/1/6
f 4/11/5 5/8/7 2/10/5
f 3/1/8 5/8/8 6/2/8
f 7/12/9 8/13/9 9/14/9
f 1/9/4 4/11/5 2/10/5
f 4/11/5 7/12/10 5/8/7
f 3/1/8 2/10/8 5/8/8
f 5/8/8 10/4/8 6/2/8
f 7/12/9 4/11/9 1/9/9
f 7/12/9 1/9/9 8/13/9
