# 3ds Max Wavefront OBJ Exporter v0.97b - (c)2007 guruware
# File Created: 17.11.2020 21:05:20

mtllib Pizza_InLeft.mtl

#
# object Cylinder002
#

v  5.6988 9.0812 13.7581
v  -0.0000 9.0812 0.0000
v  -0.0000 9.0812 14.8917
v  -0.0000 -0.0000 0.0000
v  -0.0000 -0.0000 14.8917
v  5.6988 0.0000 13.7581
# 6 vertices

vn 0.7260 0.5677 0.3881
vn -0.1643 0.5395 -0.8258
vn -0.5222 0.5677 0.6364
vn -0.1643 -0.5395 -0.8258
vn -0.5222 -0.5677 0.6364
vn 0.7260 -0.5677 0.3881
# 6 vertex normals

vt 0.3438 1.0000 1.0000
vt 0.2500 1.0000 1.0000
vt 0.3750 1.0000 1.0000
vt 0.3608 0.0000 0.9094
vt 0.2215 0.0000 0.8187
vt 0.3295 0.0000 0.9094
# 6 texture coords

o Cylinder002
g Cylinder002
usemtl wire_113135006
s 1
f 1/1/1 2/2/2 3/3/3 
s off
f 3/3/3 2/2/2 4/2/4 5/3/5 
s 1
f 5/4/5 4/5/4 6/6/6 
s off
f 5/4/5 6/6/6 1/6/1 3/4/3 
f 1/6/1 6/6/6 4/6/4 2/6/2 
# 3 polygons - 2 triangles

