# 3ds Max Wavefront OBJ Exporter v0.97b - (c)2007 guruware
# File Created: 17.11.2020 21:07:32

mtllib Pizza_OutLeft.mtl

#
# object Object002
#

v  -0.0000 -0.0000 29.7833
v  5.8104 0.0000 29.2111
v  5.8104 9.0812 29.2111
v  -0.0000 9.0812 29.7833
v  11.3976 0.0000 27.5162
v  11.3976 9.0812 27.5162
v  5.6988 9.0812 13.7581
v  -0.0000 9.0812 14.8917
v  -0.0000 -0.0000 14.8917
v  5.6988 0.0000 13.7581
# 10 vertices

vn -0.5507 -0.5724 0.6075
vn 0.1420 -0.6858 0.7138
vn 0.1420 0.6858 0.7138
vn -0.5507 0.5724 0.6075
vn 0.7412 -0.5724 0.3506
vn 0.7413 0.5724 0.3505
vn 0.3812 0.5884 -0.7131
vn -0.6250 0.5884 -0.5130
vn -0.6250 -0.5884 -0.5130
vn 0.3811 -0.5884 -0.7131
# 10 vertex normals

vt 0.5000 0.0000 1.0000
vt 0.4688 0.0000 1.0000
vt 0.4688 1.0000 1.0000
vt 0.5000 1.0000 1.0000
vt 0.4375 0.0000 1.0000
vt 0.4375 1.0000 1.0000
vt 0.3438 1.0000 1.0000
vt 0.3750 1.0000 1.0000
vt 0.3608 0.0000 0.9094
vt 0.3295 0.0000 0.9094
# 10 texture coords

o Object002
g Object002
usemtl wire_113135006
s 8
f 1/1/1 2/2/2 3/3/3 4/4/4 
f 2/2/2 5/5/5 6/6/6 3/3/3 
s 1
f 4/4/4 3/3/3 6/6/6 7/7/7 8/8/8 
s off
f 4/4/4 8/8/8 9/8/9 1/4/1 
s 1
f 5/5/5 2/2/2 1/1/1 9/9/9 10/10/10 
s off
f 7/7/7 6/6/6 5/6/5 10/7/10 
f 8/8/8 7/7/7 10/7/10 9/8/9 
# 7 polygons

