# 3ds Max Wavefront OBJ Exporter v0.97b - (c)2007 guruware
# File Created: 01.12.2020 15:25:13

mtllib Pizza_OutRight.mtl

#
# object Object001
#

v  2.864 24.368 6.914
v  4.158 24.368 6.222
v  4.158 26.650 6.222
v  2.864 26.650 6.914
v  5.292 24.368 5.292
v  5.292 26.650 5.292
v  2.646 26.650 2.646
v  1.432 26.650 3.457
v  2.646 24.368 2.646
v  1.432 24.368 3.457
# 10 vertices

vn 0.471 0.000 0.882
vn 0.556 0.000 0.831
vn 0.634 0.000 0.773
vn -0.000 1.000 -0.000
vn 0.000 1.000 0.000
vn 0.000 1.000 -0.000
vn 0.000 -1.000 -0.000
vn 0.707 0.000 -0.707
vn -0.556 -0.000 -0.831
vn -0.556 0.000 -0.831
vn -0.924 -0.000 0.383
vn -0.924 0.000 0.383
# 12 vertex normals

vt 0.438 0.000 1.000
vt 0.406 0.000 1.000
vt 0.406 1.000 1.000
vt 0.438 1.000 1.000
vt 0.375 0.000 1.000
vt 0.375 1.000 1.000
vt 0.313 1.000 1.000
vt 0.344 1.000 1.000
vt 0.298 0.000 0.909
vt 0.330 0.000 0.909
# 10 texture coords

o Object001
g Object001
usemtl wire_113135006
s 8
f 1/1/1 2/2/2 3/3/2 
f 3/3/2 4/4/1 1/1/1 
f 2/2/2 5/5/3 6/6/3 
f 6/6/3 3/3/2 2/2/2 
s 1
f 4/4/4 3/3/5 6/6/6 
f 4/4/4 6/6/6 7/7/4 
f 4/4/4 7/7/4 8/8/4 
f 5/5/7 2/2/7 1/1/7 
f 9/9/7 5/5/7 1/1/7 
f 9/9/7 1/1/7 10/10/7 
s off
f 6/6/8 5/6/8 9/7/8 
f 9/7/8 7/7/8 6/6/8 
f 8/8/9 7/7/9 9/7/9 
f 9/7/10 10/8/10 8/8/10 
f 1/1/11 4/4/11 8/4/11 
f 8/4/12 10/1/12 1/1/12 
# 16 faces

