# Blender v2.90.1 OBJ File: ''
# www.blender.org
mtllib Tile_Bigger.mtl
o Box001
v -2.623296 -0.000000 -3.016368
v -3.632050 0.000000 -5.451714
v -1.196704 0.000000 -6.460467
v -0.187950 -0.000000 -4.025121
v -2.393829 2.172000 -3.570350
v -0.741933 2.172000 -4.254588
v -1.426171 2.172000 -5.906485
v -3.078067 2.172000 -5.222247
v -1.932173 2.642000 -4.729233
v -1.916483 2.626000 -4.691354
v -1.701219 2.564000 -4.780519
v -1.710442 2.578000 -4.821077
v -1.905385 2.584000 -4.664561
v -1.710446 2.527000 -4.745307
v -1.901175 2.526000 -4.654398
v -1.733029 2.477000 -4.724047
v -1.905385 2.468000 -4.664561
v -1.764032 2.427000 -4.723112
v -1.916483 2.425000 -4.691354
v -1.794531 2.390000 -4.741868
v -1.932173 2.409000 -4.729233
v -1.817612 2.376000 -4.776686
v -1.947863 2.425000 -4.767112
v -1.825911 2.390000 -4.817626
v -1.958961 2.468000 -4.793904
v -1.817607 2.427000 -4.852455
v -1.963170 2.526000 -4.804067
v -1.795024 2.477000 -4.873715
v -1.958961 2.584000 -4.793904
v -1.764022 2.527000 -4.874650
v -1.947863 2.626000 -4.767112
v -1.732599 2.564000 -4.856277
v -1.544159 2.394000 -4.845575
v -1.547839 2.402000 -4.888429
v -1.567245 2.373000 -4.804624
v -1.609230 2.344000 -4.775327
v -1.660557 2.315000 -4.765973
v -1.705838 2.293000 -4.778605
v -1.733539 2.285000 -4.811510
v -1.737218 2.293000 -4.854364
v -1.714133 2.315000 -4.895316
v -1.671224 2.344000 -4.924995
v -1.620821 2.373000 -4.933967
v -1.575539 2.394000 -4.921333
v -1.486879 2.161000 -4.869302
v -1.487787 2.161000 -4.913304
v -1.514584 2.161000 -4.826437
v -1.564883 2.161000 -4.793695
v -1.622678 2.161000 -4.781662
v -1.672579 2.161000 -4.792382
v -1.703051 2.161000 -4.824138
v -1.703959 2.161000 -4.868140
v -1.676254 2.161000 -4.911005
v -1.626878 2.161000 -4.943364
v -1.568160 2.161000 -4.955780
v -1.518259 2.161000 -4.945060
v -2.375635 2.161000 -4.545545
v -2.346087 2.161000 -4.513406
v -2.288806 2.394000 -4.537132
v -2.316507 2.402000 -4.570036
v -2.295262 2.161000 -4.503069
v -2.243525 2.373000 -4.524499
v -2.237468 2.161000 -4.515102
v -2.192198 2.344000 -4.533854
v -2.188092 2.161000 -4.547460
v -2.150213 2.315000 -4.563150
v -2.159463 2.161000 -4.590708
v -2.127127 2.293000 -4.604102
v -2.161295 2.161000 -4.634327
v -2.130807 2.285000 -4.646956
v -2.190843 2.161000 -4.666466
v -2.158507 2.293000 -4.679860
v -2.241668 2.161000 -4.676803
v -2.203789 2.315000 -4.692493
v -2.299462 2.161000 -4.664770
v -2.254192 2.344000 -4.683522
v -2.348838 2.161000 -4.632412
v -2.297101 2.373000 -4.653842
v -2.377467 2.161000 -4.589164
v -2.320186 2.394000 -4.612891
v -2.130823 2.564000 -4.602571
v -2.153904 2.578000 -4.637389
v -2.100324 2.527000 -4.583815
v -2.069322 2.477000 -4.584750
v -2.046739 2.427000 -4.606011
v -2.038435 2.390000 -4.640840
v -2.046734 2.376000 -4.681780
v -2.069815 2.390000 -4.716598
v -2.100314 2.427000 -4.735354
v -2.131316 2.477000 -4.734419
v -2.153899 2.527000 -4.713158
v -2.162203 2.564000 -4.678329
vt 1.000000 0.000000
vt 1.000000 1.000000
vt 0.000000 1.000000
vt 0.000000 0.000000
vt 0.000000 0.000000
vt 1.000000 0.000000
vt 1.000000 1.000000
vt 0.000000 1.000000
vt 0.000000 0.000000
vt 1.000000 0.000000
vt 1.000000 1.000000
vt 0.000000 1.000000
vt 1.000000 0.000000
vt 0.000000 1.000000
vt 0.000000 0.000000
vt 1.000000 0.000000
vt 1.000000 1.000000
vt 0.000000 1.000000
vt 0.000000 0.000000
vt 1.000000 1.000000
vt 0.000000 0.000000
vt 0.083000 0.000000
vt 0.083000 0.083000
vt 0.000000 0.083000
vt 0.167000 0.000000
vt 0.167000 0.083000
vt 0.250000 0.000000
vt 0.250000 0.083000
vt 0.333000 0.000000
vt 0.333000 0.083000
vt 0.417000 0.000000
vt 0.417000 0.083000
vt 0.500000 0.000000
vt 0.500000 0.083000
vt 0.583000 0.000000
vt 0.583000 0.083000
vt 0.667000 0.000000
vt 0.667000 0.083000
vt 0.750000 0.000000
vt 0.750000 0.083000
vt 0.833000 0.000000
vt 0.833000 0.083000
vt 0.917000 0.000000
vt 0.917000 0.083000
vt 1.000000 0.000000
vt 1.000000 0.083000
vt 0.083000 0.167000
vt 0.000000 0.167000
vt 0.167000 0.167000
vt 0.250000 0.167000
vt 0.333000 0.167000
vt 0.417000 0.167000
vt 0.500000 0.167000
vt 0.583000 0.167000
vt 0.667000 0.167000
vt 0.750000 0.167000
vt 0.833000 0.167000
vt 0.917000 0.167000
vt 1.000000 0.167000
vt 0.083000 0.250000
vt 0.000000 0.250000
vt 0.167000 0.250000
vt 0.250000 0.250000
vt 0.333000 0.250000
vt 0.417000 0.250000
vt 0.500000 0.250000
vt 0.583000 0.250000
vt 0.667000 0.250000
vt 0.750000 0.250000
vt 0.833000 0.250000
vt 0.917000 0.250000
vt 1.000000 0.250000
vt 0.000000 0.750000
vt 0.083000 0.750000
vt 0.083000 0.833000
vt 0.000000 0.833000
vt 0.167000 0.750000
vt 0.167000 0.833000
vt 0.250000 0.750000
vt 0.250000 0.833000
vt 0.333000 0.750000
vt 0.333000 0.833000
vt 0.417000 0.750000
vt 0.417000 0.833000
vt 0.500000 0.750000
vt 0.500000 0.833000
vt 0.583000 0.750000
vt 0.583000 0.833000
vt 0.667000 0.750000
vt 0.667000 0.833000
vt 0.750000 0.750000
vt 0.750000 0.833000
vt 0.833000 0.750000
vt 0.833000 0.833000
vt 0.917000 0.750000
vt 0.917000 0.833000
vt 1.000000 0.750000
vt 1.000000 0.833000
vt 0.083000 0.917000
vt 0.000000 0.917000
vt 0.167000 0.917000
vt 0.250000 0.917000
vt 0.333000 0.917000
vt 0.417000 0.917000
vt 0.500000 0.917000
vt 0.583000 0.917000
vt 0.667000 0.917000
vt 0.750000 0.917000
vt 0.833000 0.917000
vt 0.917000 0.917000
vt 1.000000 0.917000
vt 0.083000 1.000000
vt 0.000000 1.000000
vt 0.167000 1.000000
vt 0.250000 1.000000
vt 0.333000 1.000000
vt 0.417000 1.000000
vt 0.500000 1.000000
vt 0.583000 1.000000
vt 0.667000 1.000000
vt 0.750000 1.000000
vt 0.833000 1.000000
vt 0.917000 1.000000
vt 1.000000 1.000000
vn -0.0000 -1.0000 -0.0000
vn 0.0000 1.0000 0.0000
vn 0.3755 0.1923 0.9066
vn 0.3756 0.1922 0.9067
vn 0.9066 0.1923 -0.3755
vn 0.9067 0.1922 -0.3756
vn -0.3755 0.1923 -0.9066
vn -0.3756 0.1922 -0.9067
vn -0.9066 0.1923 0.3755
vn -0.9067 0.1922 0.3756
vn -0.0003 1.0000 -0.0001
vn 0.2272 0.8046 0.5486
vn 0.5986 0.6969 0.3949
vn 0.4619 0.8660 -0.1913
vn 0.3480 0.4161 0.8401
vn 0.5402 0.3601 0.7606
vn 0.3825 0.0308 0.9234
vn 0.3962 0.0271 0.9178
vn 0.3576 -0.3562 0.8633
vn 0.1931 -0.3082 0.9315
vn 0.2452 -0.7677 0.5920
vn -0.1094 -0.6648 0.7390
vn -0.4620 -0.8660 0.1914
vn -0.2452 -0.7677 -0.5920
vn -0.5999 -0.6648 -0.4452
vn -0.3576 -0.3562 -0.8633
vn -0.5222 -0.3082 -0.7952
vn -0.3825 0.0308 -0.9234
vn -0.3687 0.0270 -0.9291
vn -0.3480 0.4161 -0.8401
vn -0.1558 0.3601 -0.9198
vn -0.2272 0.8047 -0.5485
vn 0.1441 0.6969 -0.7025
vn 0.8712 0.4019 0.2820
vn 0.8001 0.5001 -0.3314
vn 0.6807 0.2081 0.7024
vn 0.4074 0.0150 0.9131
vn 0.0729 -0.1781 0.9813
vn -0.3690 -0.3839 0.8465
vn -0.8001 -0.5000 0.3314
vn -0.8594 -0.3839 -0.3376
vn -0.6423 -0.1781 -0.7454
vn -0.3576 0.0150 -0.9338
vn -0.0153 0.2081 -0.9780
vn 0.4168 0.4017 -0.8154
vn 0.9489 0.2110 0.2347
vn 0.8924 0.2590 -0.3696
vn 0.7275 0.1110 0.6771
vn 0.4111 0.0080 0.9115
vn 0.0280 -0.0949 0.9951
vn -0.4544 -0.2010 0.8678
vn -0.8924 -0.2590 0.3696
vn -0.9350 -0.2010 -0.2923
vn -0.6839 -0.0950 -0.7234
vn -0.3538 0.0080 -0.9353
vn 0.0356 0.1110 -0.9932
vn 0.5051 0.2110 -0.8369
vn -0.8924 0.2589 0.3696
vn -0.5051 0.2109 0.8369
vn -0.4166 0.4019 0.8154
vn -0.8001 0.5000 0.3314
vn -0.0356 0.1110 0.9932
vn 0.0153 0.2081 0.9780
vn 0.3538 0.0079 0.9353
vn 0.3575 0.0150 0.9338
vn 0.6839 -0.0950 0.7234
vn 0.6423 -0.1781 0.7455
vn 0.9349 -0.2010 0.2924
vn 0.8594 -0.3839 0.3376
vn 0.8924 -0.2589 -0.3696
vn 0.8001 -0.5000 -0.3314
vn 0.4544 -0.2010 -0.8678
vn 0.3690 -0.3839 -0.8465
vn -0.0280 -0.0950 -0.9951
vn -0.0729 -0.1781 -0.9813
vn -0.4112 0.0081 -0.9115
vn -0.4075 0.0150 -0.9131
vn -0.7275 0.1110 -0.6771
vn -0.6808 0.2081 -0.7023
vn -0.9489 0.2109 -0.2346
vn -0.8712 0.4019 -0.2820
vn -0.1441 0.6969 0.7025
vn -0.4619 0.8660 0.1913
vn 0.1558 0.3601 0.9198
vn 0.3689 0.0270 0.9291
vn 0.5222 -0.3082 0.7952
vn 0.5999 -0.6648 0.4451
vn 0.4619 -0.8660 -0.1914
vn 0.1094 -0.6648 -0.7390
vn -0.1931 -0.3081 -0.9315
vn -0.3963 0.0270 -0.9177
vn -0.5403 0.3602 -0.7605
vn -0.5986 0.6969 -0.3949
usemtl wire_008061138
s 1
f 1/1/1 2/2/1 3/3/1
f 3/3/1 4/4/1 1/1/1
f 5/5/2 6/6/2 7/7/2
f 7/7/2 8/8/2 5/5/2
f 1/9/3 4/10/4 6/11/4
f 6/11/4 5/12/4 1/9/3
f 4/4/5 3/13/6 7/7/6
f 7/7/6 6/14/6 4/4/5
f 3/15/7 2/16/8 8/17/8
f 8/17/8 7/18/8 3/15/7
f 2/19/9 1/1/10 5/20/10
f 5/20/10 8/8/10 2/19/9
f 9/21/11 10/22/12 11/23/13
f 11/23/13 12/24/14 9/21/11
f 10/22/12 13/25/15 14/26/16
f 14/26/16 11/23/13 10/22/12
f 13/25/15 15/27/17 16/28/18
f 16/28/18 14/26/16 13/25/15
f 15/27/17 17/29/19 18/30/20
f 18/30/20 16/28/18 15/27/17
f 17/29/19 19/31/21 20/32/22
f 20/32/22 18/30/20 17/29/19
f 19/31/21 21/33/1 22/34/23
f 22/34/23 20/32/22 19/31/21
f 21/33/1 23/35/24 24/36/25
f 24/36/25 22/34/23 21/33/1
f 23/35/24 25/37/26 26/38/27
f 26/38/27 24/36/25 23/35/24
f 25/37/26 27/39/28 28/40/29
f 28/40/29 26/38/27 25/37/26
f 27/39/28 29/41/30 30/42/31
f 30/42/31 28/40/29 27/39/28
f 29/41/30 31/43/32 32/44/33
f 32/44/33 30/42/31 29/41/30
f 31/43/32 9/45/11 12/46/14
f 12/46/14 32/44/33 31/43/32
f 12/24/14 11/23/13 33/47/34
f 33/47/34 34/48/35 12/24/14
f 11/23/13 14/26/16 35/49/36
f 35/49/36 33/47/34 11/23/13
f 14/26/16 16/28/18 36/50/37
f 36/50/37 35/49/36 14/26/16
f 16/28/18 18/30/20 37/51/38
f 37/51/38 36/50/37 16/28/18
f 18/30/20 20/32/22 38/52/39
f 38/52/39 37/51/38 18/30/20
f 20/32/22 22/34/23 39/53/40
f 39/53/40 38/52/39 20/32/22
f 22/34/23 24/36/25 40/54/41
f 40/54/41 39/53/40 22/34/23
f 24/36/25 26/38/27 41/55/42
f 41/55/42 40/54/41 24/36/25
f 26/38/27 28/40/29 42/56/43
f 42/56/43 41/55/42 26/38/27
f 28/40/29 30/42/31 43/57/44
f 43/57/44 42/56/43 28/40/29
f 30/42/31 32/44/33 44/58/45
f 44/58/45 43/57/44 30/42/31
f 32/44/33 12/46/14 34/59/35
f 34/59/35 44/58/45 32/44/33
f 34/48/35 33/47/34 45/60/46
f 45/60/46 46/61/47 34/48/35
f 33/47/34 35/49/36 47/62/48
f 47/62/48 45/60/46 33/47/34
f 35/49/36 36/50/37 48/63/49
f 48/63/49 47/62/48 35/49/36
f 36/50/37 37/51/38 49/64/50
f 49/64/50 48/63/49 36/50/37
f 37/51/38 38/52/39 50/65/51
f 50/65/51 49/64/50 37/51/38
f 38/52/39 39/53/40 51/66/52
f 51/66/52 50/65/51 38/52/39
f 39/53/40 40/54/41 52/67/53
f 52/67/53 51/66/52 39/53/40
f 40/54/41 41/55/42 53/68/54
f 53/68/54 52/67/53 40/54/41
f 41/55/42 42/56/43 54/69/55
f 54/69/55 53/68/54 41/55/42
f 42/56/43 43/57/44 55/70/56
f 55/70/56 54/69/55 42/56/43
f 43/57/44 44/58/45 56/71/57
f 56/71/57 55/70/56 43/57/44
f 44/58/45 34/59/35 46/72/47
f 46/72/47 56/71/57 44/58/45
f 57/73/58 58/74/59 59/75/60
f 59/75/60 60/76/61 57/73/58
f 58/74/59 61/77/62 62/78/63
f 62/78/63 59/75/60 58/74/59
f 61/77/62 63/79/64 64/80/65
f 64/80/65 62/78/63 61/77/62
f 63/79/64 65/81/66 66/82/67
f 66/82/67 64/80/65 63/79/64
f 65/81/66 67/83/68 68/84/69
f 68/84/69 66/82/67 65/81/66
f 67/83/68 69/85/70 70/86/71
f 70/86/71 68/84/69 67/83/68
f 69/85/70 71/87/72 72/88/73
f 72/88/73 70/86/71 69/85/70
f 71/87/72 73/89/74 74/90/75
f 74/90/75 72/88/73 71/87/72
f 73/89/74 75/91/76 76/92/77
f 76/92/77 74/90/75 73/89/74
f 75/91/76 77/93/78 78/94/79
f 78/94/79 76/92/77 75/91/76
f 77/93/78 79/95/80 80/96/81
f 80/96/81 78/94/79 77/93/78
f 79/95/80 57/97/58 60/98/61
f 60/98/61 80/96/81 79/95/80
f 60/76/61 59/75/60 81/99/82
f 81/99/82 82/100/83 60/76/61
f 59/75/60 62/78/63 83/101/84
f 83/101/84 81/99/82 59/75/60
f 62/78/63 64/80/65 84/102/85
f 84/102/85 83/101/84 62/78/63
f 64/80/65 66/82/67 85/103/86
f 85/103/86 84/102/85 64/80/65
f 66/82/67 68/84/69 86/104/87
f 86/104/87 85/103/86 66/82/67
f 68/84/69 70/86/71 87/105/88
f 87/105/88 86/104/87 68/84/69
f 70/86/71 72/88/73 88/106/89
f 88/106/89 87/105/88 70/86/71
f 72/88/73 74/90/75 89/107/90
f 89/107/90 88/106/89 72/88/73
f 74/90/75 76/92/77 90/108/91
f 90/108/91 89/107/90 74/90/75
f 76/92/77 78/94/79 91/109/92
f 91/109/92 90/108/91 76/92/77
f 78/94/79 80/96/81 92/110/93
f 92/110/93 91/109/92 78/94/79
f 80/96/81 60/98/61 82/111/83
f 82/111/83 92/110/93 80/96/81
f 82/100/83 81/99/82 10/112/12
f 10/112/12 9/113/11 82/100/83
f 81/99/82 83/101/84 13/114/15
f 13/114/15 10/112/12 81/99/82
f 83/101/84 84/102/85 15/115/17
f 15/115/17 13/114/15 83/101/84
f 84/102/85 85/103/86 17/116/19
f 17/116/19 15/115/17 84/102/85
f 85/103/86 86/104/87 19/117/21
f 19/117/21 17/116/19 85/103/86
f 86/104/87 87/105/88 21/118/1
f 21/118/1 19/117/21 86/104/87
f 87/105/88 88/106/89 23/119/24
f 23/119/24 21/118/1 87/105/88
f 88/106/89 89/107/90 25/120/26
f 25/120/26 23/119/24 88/106/89
f 89/107/90 90/108/91 27/121/28
f 27/121/28 25/120/26 89/107/90
f 90/108/91 91/109/92 29/122/30
f 29/122/30 27/121/28 90/108/91
f 91/109/92 92/110/93 31/123/32
f 31/123/32 29/122/30 91/109/92
f 92/110/93 82/111/83 9/124/11
f 9/124/11 31/123/32 92/110/93
