# Blender v2.90.1 OBJ File: ''
# www.blender.org
mtllib Tower.mtl
o Cylinder001.001
v 0.000000 0.000000 0.000000
v 2.532919 0.000000 -0.503823
v 2.582559 0.000000 0.000000
v 2.147304 0.000000 -1.434782
v 2.385965 0.000000 -0.988292
v 1.434782 0.000000 -2.147304
v 1.826147 0.000000 -1.826147
v 0.503823 0.000000 -2.532919
v 0.988292 0.000000 -2.385965
v -0.503823 0.000000 -2.532919
v 0.000000 0.000000 -2.582559
v -1.434782 0.000000 -2.147304
v -0.988292 0.000000 -2.385965
v -2.147304 0.000000 -1.434782
v -1.826147 0.000000 -1.826147
v -2.532919 0.000000 -0.503823
v -2.385965 0.000000 -0.988292
v -2.532919 -0.000000 0.503823
v -2.582559 0.000000 0.000000
v -2.147304 -0.000000 1.434782
v -2.385965 -0.000000 0.988292
v -1.434782 -0.000000 2.147304
v -1.826147 -0.000000 1.826147
v -0.503823 -0.000000 2.532919
v -0.988292 -0.000000 2.385965
v 0.503843 -0.000000 2.532919
v 0.000000 -0.000000 2.582559
v 1.434782 -0.000000 2.147304
v 0.988312 -0.000000 2.385965
v 2.147324 -0.000000 1.434782
v 1.826147 -0.000000 1.826147
v 2.532919 -0.000000 0.503823
v 2.385965 -0.000000 0.988292
v 2.582559 89.023979 0.000015
v 2.532919 89.023979 -0.503807
v 2.385965 89.023979 -0.988276
v 2.147304 89.023979 -1.434767
v 1.826147 89.023979 -1.826132
v 1.434782 89.023979 -2.147289
v 0.988292 89.023979 -2.385950
v 0.000000 89.023979 -2.582544
v 0.503823 89.023979 -2.532903
v -0.503823 89.023979 -2.532903
v -0.988292 89.023979 -2.385950
v -1.434782 89.023979 -2.147289
v -1.826147 89.023979 -1.826132
v -2.147304 89.023979 -1.434767
v -2.385965 89.023979 -0.988276
v -2.532919 89.023979 -0.503807
v -2.582559 89.023979 0.000015
v -2.532919 89.023979 0.503838
v -2.385965 89.023979 0.988307
v -2.147304 89.023979 1.434797
v -1.826147 89.023979 1.826162
v -1.434782 89.023979 2.147320
v -0.988292 89.023979 2.385982
v 0.000000 89.023979 2.582574
v -0.503823 89.023979 2.532935
v 0.503843 89.023979 2.532935
v 0.988312 89.023979 2.385982
v 1.434782 89.023979 2.147320
v 1.826147 89.023979 1.826162
v 2.147324 89.023979 1.434797
v 2.385965 89.023979 0.988307
v 2.532919 89.023979 0.503838
v 0.000000 89.023979 0.000015
vt 0.500000 0.000000
vt 0.781300 0.000000
vt 0.750000 0.000000
vt 0.843800 0.000000
vt 0.812500 0.000000
vt 0.906300 0.000000
vt 0.875000 0.000000
vt 0.968800 0.000000
vt 0.937500 0.000000
vt 0.031300 0.000000
vt 0.000000 0.000000
vt 0.093800 0.000000
vt 0.062500 0.000000
vt 0.156300 0.000000
vt 0.125000 0.000000
vt 0.218800 0.000000
vt 0.187500 0.000000
vt 0.281300 0.000000
vt 0.250000 0.000000
vt 0.343800 0.000000
vt 0.312500 0.000000
vt 0.406300 0.000000
vt 0.375000 0.000000
vt 0.468800 0.000000
vt 0.437500 0.000000
vt 0.531300 0.000000
vt 0.500000 0.000000
vt 0.593800 0.000000
vt 0.562500 0.000000
vt 0.656300 0.000000
vt 0.625000 0.000000
vt 0.718800 0.000000
vt 0.687500 0.000000
vt 0.750000 1.000000
vt 0.781300 1.000000
vt 0.812500 1.000000
vt 0.843800 1.000000
vt 0.875000 1.000000
vt 0.906300 1.000000
vt 0.937500 1.000000
vt 1.000000 1.000000
vt 0.968800 1.000000
vt 0.000000 1.000000
vt 0.031300 1.000000
vt 0.062500 1.000000
vt 0.093800 1.000000
vt 0.125000 1.000000
vt 0.156300 1.000000
vt 0.187500 1.000000
vt 0.218800 1.000000
vt 0.250000 1.000000
vt 0.281300 1.000000
vt 0.312500 1.000000
vt 0.343800 1.000000
vt 0.375000 1.000000
vt 0.406300 1.000000
vt 0.437500 1.000000
vt 0.500000 1.000000
vt 0.468800 1.000000
vt 0.531300 1.000000
vt 0.562500 1.000000
vt 0.593800 1.000000
vt 0.625000 1.000000
vt 0.656300 1.000000
vt 0.687500 1.000000
vt 0.718800 1.000000
vt 0.500000 1.000000
vt 1.012000 1.000000
vt 1.000000 0.000000
vn -0.0000 -1.0000 -0.0000
vn 0.7139 -0.6857 -0.1420
vn 0.7279 -0.6857 0.0000
vn 0.6052 -0.6857 -0.4044
vn 0.6725 -0.6857 -0.2786
vn 0.4044 -0.6857 -0.6052
vn 0.5147 -0.6857 -0.5147
vn 0.1420 -0.6857 -0.7139
vn 0.2786 -0.6857 -0.6725
vn -0.1420 -0.6857 -0.7139
vn 0.0000 -0.6857 -0.7279
vn -0.4044 -0.6857 -0.6052
vn -0.2786 -0.6857 -0.6725
vn -0.6052 -0.6857 -0.4044
vn -0.5147 -0.6857 -0.5147
vn -0.7139 -0.6857 -0.1420
vn -0.6725 -0.6857 -0.2786
vn -0.7139 -0.6857 0.1420
vn -0.7279 -0.6857 -0.0000
vn -0.6052 -0.6857 0.4044
vn -0.6725 -0.6857 0.2786
vn -0.4044 -0.6857 0.6052
vn -0.5147 -0.6857 0.5147
vn -0.1420 -0.6857 0.7139
vn -0.2786 -0.6857 0.6725
vn 0.1420 -0.6857 0.7139
vn -0.0000 -0.6857 0.7279
vn 0.4044 -0.6857 0.6052
vn 0.2786 -0.6857 0.6725
vn 0.6052 -0.6857 0.4044
vn 0.5147 -0.6857 0.5147
vn 0.7139 -0.6857 0.1420
vn 0.6725 -0.6857 0.2785
vn 0.7279 0.6857 -0.0000
vn 0.7139 0.6857 -0.1420
vn 0.6725 0.6857 -0.2786
vn 0.6052 0.6857 -0.4044
vn 0.5147 0.6857 -0.5147
vn 0.4044 0.6857 -0.6052
vn 0.2786 0.6857 -0.6725
vn 0.0000 0.6857 -0.7279
vn 0.1420 0.6857 -0.7139
vn -0.1420 0.6857 -0.7139
vn -0.2786 0.6857 -0.6725
vn -0.4044 0.6857 -0.6052
vn -0.5147 0.6857 -0.5147
vn -0.6052 0.6857 -0.4044
vn -0.6725 0.6857 -0.2786
vn -0.7139 0.6857 -0.1420
vn -0.7279 0.6857 0.0000
vn -0.7139 0.6857 0.1420
vn -0.6725 0.6857 0.2786
vn -0.6052 0.6857 0.4044
vn -0.5147 0.6857 0.5147
vn -0.4044 0.6857 0.6052
vn -0.2786 0.6857 0.6725
vn -0.0000 0.6857 0.7279
vn -0.1420 0.6857 0.7139
vn 0.1420 0.6857 0.7139
vn 0.2786 0.6857 0.6725
vn 0.4044 0.6857 0.6052
vn 0.5147 0.6857 0.5147
vn 0.6052 0.6857 0.4044
vn 0.6725 0.6857 0.2785
vn 0.7139 0.6857 0.1420
vn 0.0000 1.0000 -0.0000
usemtl wire_008008136.001
s 1
f 1/1/1 2/2/2 3/3/3
f 1/1/1 4/4/4 5/5/5
f 1/1/1 6/6/6 7/7/7
f 1/1/1 8/8/8 9/9/9
f 1/1/1 10/10/10 11/11/11
f 1/1/1 12/12/12 13/13/13
f 1/1/1 14/14/14 15/15/15
f 1/1/1 16/16/16 17/17/17
f 1/1/1 18/18/18 19/19/19
f 1/1/1 20/20/20 21/21/21
f 1/1/1 22/22/22 23/23/23
f 1/1/1 24/24/24 25/25/25
f 1/1/1 26/26/26 27/27/27
f 1/1/1 28/28/28 29/29/29
f 1/1/1 30/30/30 31/31/31
f 1/1/1 32/32/32 33/33/33
f 2/2/2 34/34/34 3/3/3
f 5/5/5 35/35/35 2/2/2
f 4/4/4 36/36/36 5/5/5
f 7/7/7 37/37/37 4/4/4
f 6/6/6 38/38/38 7/7/7
f 9/9/9 39/39/39 6/6/6
f 8/8/8 40/40/40 9/9/9
f 8/8/8 41/41/41 42/42/42
f 10/10/10 41/43/41 11/11/11
f 13/13/13 43/44/43 10/10/10
f 12/12/12 44/45/44 13/13/13
f 15/15/15 45/46/45 12/12/12
f 14/14/14 46/47/46 15/15/15
f 17/17/17 47/48/47 14/14/14
f 16/16/16 48/49/48 17/17/17
f 19/19/19 49/50/49 16/16/16
f 18/18/18 50/51/50 19/19/19
f 21/21/21 51/52/51 18/18/18
f 20/20/20 52/53/52 21/21/21
f 23/23/23 53/54/53 20/20/20
f 22/22/22 54/55/54 23/23/23
f 25/25/25 55/56/55 22/22/22
f 24/24/24 56/57/56 25/25/25
f 24/24/24 57/58/57 58/59/58
f 26/26/26 57/58/57 27/27/27
f 29/29/29 59/60/59 26/26/26
f 28/28/28 60/61/60 29/29/29
f 31/31/31 61/62/61 28/28/28
f 30/30/30 62/63/62 31/31/31
f 33/33/33 63/64/63 30/30/30
f 32/32/32 64/65/64 33/33/33
f 3/3/3 65/66/65 32/32/32
f 66/67/66 34/34/34 35/35/35
f 66/67/66 36/36/36 37/37/37
f 66/67/66 38/38/38 39/39/39
f 66/67/66 40/40/40 42/42/42
f 66/67/66 41/41/41 43/68/43
f 66/67/66 44/45/44 45/46/45
f 66/67/66 46/47/46 47/48/47
f 66/67/66 48/49/48 49/50/49
f 66/67/66 50/51/50 51/52/51
f 66/67/66 52/53/52 53/54/53
f 66/67/66 54/55/54 55/56/55
f 66/67/66 56/57/56 58/59/58
f 66/67/66 57/58/57 59/60/59
f 66/67/66 60/61/60 61/62/61
f 66/67/66 62/63/62 63/64/63
f 66/67/66 64/65/64 65/66/65
f 1/1/1 5/5/5 2/2/2
f 1/1/1 7/7/7 4/4/4
f 1/1/1 9/9/9 6/6/6
f 1/1/1 11/69/11 8/8/8
f 1/1/1 13/13/13 10/10/10
f 1/1/1 15/15/15 12/12/12
f 1/1/1 17/17/17 14/14/14
f 1/1/1 19/19/19 16/16/16
f 1/1/1 21/21/21 18/18/18
f 1/1/1 23/23/23 20/20/20
f 1/1/1 25/25/25 22/22/22
f 1/1/1 27/27/27 24/24/24
f 1/1/1 29/29/29 26/26/26
f 1/1/1 31/31/31 28/28/28
f 1/1/1 33/33/33 30/30/30
f 1/1/1 3/3/3 32/32/32
f 2/2/2 35/35/35 34/34/34
f 5/5/5 36/36/36 35/35/35
f 4/4/4 37/37/37 36/36/36
f 7/7/7 38/38/38 37/37/37
f 6/6/6 39/39/39 38/38/38
f 9/9/9 40/40/40 39/39/39
f 8/8/8 42/42/42 40/40/40
f 8/8/8 11/69/11 41/41/41
f 10/10/10 43/44/43 41/43/41
f 13/13/13 44/45/44 43/44/43
f 12/12/12 45/46/45 44/45/44
f 15/15/15 46/47/46 45/46/45
f 14/14/14 47/48/47 46/47/46
f 17/17/17 48/49/48 47/48/47
f 16/16/16 49/50/49 48/49/48
f 19/19/19 50/51/50 49/50/49
f 18/18/18 51/52/51 50/51/50
f 21/21/21 52/53/52 51/52/51
f 20/20/20 53/54/53 52/53/52
f 23/23/23 54/55/54 53/54/53
f 22/22/22 55/56/55 54/55/54
f 25/25/25 56/57/56 55/56/55
f 24/24/24 58/59/58 56/57/56
f 24/24/24 27/27/27 57/58/57
f 26/26/26 59/60/59 57/58/57
f 29/29/29 60/61/60 59/60/59
f 28/28/28 61/62/61 60/61/60
f 31/31/31 62/63/62 61/62/61
f 30/30/30 63/64/63 62/63/62
f 33/33/33 64/65/64 63/64/63
f 32/32/32 65/66/65 64/65/64
f 3/3/3 34/34/34 65/66/65
f 66/67/66 65/66/65 34/34/34
f 66/67/66 35/35/35 36/36/36
f 66/67/66 37/37/37 38/38/38
f 66/67/66 39/39/39 40/40/40
f 66/67/66 42/42/42 41/41/41
f 66/67/66 43/44/43 44/45/44
f 66/67/66 45/46/45 46/47/46
f 66/67/66 47/48/47 48/49/48
f 66/67/66 49/50/49 50/51/50
f 66/67/66 51/52/51 52/53/52
f 66/67/66 53/54/53 54/55/54
f 66/67/66 55/56/55 56/57/56
f 66/67/66 58/59/58 57/58/57
f 66/67/66 59/60/59 60/61/60
f 66/67/66 61/62/61 62/63/62
f 66/67/66 63/64/63 64/65/64
