# 3ds Max Wavefront OBJ Exporter v0.97b - (c)2007 guruware
# File Created: 24.11.2020 16:21:50

mtllib Weight.mtl

#
# object Box001
#

v  -8.3527 0.0000 8.3527
v  -8.3527 0.0000 -8.3527
v  8.3527 0.0000 -8.3527
v  8.3527 0.0000 8.3527
v  -5.6630 13.7649 5.6630
v  5.6630 13.7649 5.6630
v  5.6630 13.7649 -5.6630
v  -5.6630 13.7649 -5.6630
v  -0.1510 16.7424 0.0000
v  -0.1510 16.6436 0.2572
v  1.3223 16.2489 0.2572
v  1.3717 16.3344 0.0000
v  -0.1510 16.3739 0.4456
v  1.1874 16.0152 0.4456
v  -0.1510 16.0053 0.5145
v  1.0032 15.6961 0.5145
v  -0.1510 15.6368 0.4456
v  0.8189 15.3769 0.4456
v  -0.1510 15.3670 0.2572
v  0.6840 15.1433 0.2572
v  -0.1510 15.2683 0.0000
v  0.6347 15.0578 0.0000
v  -0.1510 15.3670 -0.2572
v  0.6840 15.1433 -0.2572
v  -0.1510 15.6368 -0.4456
v  0.8189 15.3769 -0.4456
v  -0.1510 16.0053 -0.5145
v  1.0032 15.6961 -0.5145
v  -0.1510 16.3739 -0.4456
v  1.1874 16.0152 -0.4456
v  -0.1510 16.6436 -0.2572
v  1.3223 16.2489 -0.2572
v  2.4009 15.1703 0.2572
v  2.4864 15.2197 0.0000
v  2.1672 15.0354 0.4456
v  1.8481 14.8512 0.5145
v  1.5289 14.6669 0.4456
v  1.2953 14.5320 0.2572
v  1.2098 14.4827 0.0000
v  1.2953 14.5320 -0.2572
v  1.5289 14.6669 -0.4456
v  1.8481 14.8512 -0.5145
v  2.1672 15.0354 -0.4456
v  2.4009 15.1703 -0.2572
v  2.7956 13.6970 0.2572
v  2.8944 13.6970 0.0000
v  2.5259 13.6970 0.4456
v  2.1573 13.6970 0.5145
v  1.7888 13.6970 0.4456
v  1.5190 13.6970 0.2572
v  1.4203 13.6970 0.0000
v  1.5190 13.6970 -0.2572
v  1.7888 13.6970 -0.4456
v  2.1573 13.6970 -0.5145
v  2.5259 13.6970 -0.4456
v  2.7956 13.6970 -0.2572
v  -3.1963 13.6970 0.0000
v  -3.0976 13.6970 0.2572
v  -2.7028 15.1703 0.2572
v  -2.7883 15.2197 0.0000
v  -2.8278 13.6970 0.4456
v  -2.4692 15.0354 0.4456
v  -2.4593 13.6970 0.5145
v  -2.1500 14.8512 0.5145
v  -2.0908 13.6970 0.4456
v  -1.8309 14.6669 0.4456
v  -1.8210 13.6970 0.2572
v  -1.5973 14.5320 0.2572
v  -1.7223 13.6970 0.0000
v  -1.5117 14.4827 0.0000
v  -1.8210 13.6970 -0.2572
v  -1.5973 14.5320 -0.2572
v  -2.0908 13.6970 -0.4456
v  -1.8309 14.6669 -0.4456
v  -2.4593 13.6970 -0.5145
v  -2.1500 14.8512 -0.5145
v  -2.8278 13.6970 -0.4456
v  -2.4692 15.0354 -0.4456
v  -3.0976 13.6970 -0.2572
v  -2.7028 15.1703 -0.2572
v  -1.6243 16.2489 0.2572
v  -1.6737 16.3344 0.0000
v  -1.4894 16.0152 0.4456
v  -1.3051 15.6961 0.5145
v  -1.1209 15.3769 0.4456
v  -0.9860 15.1433 0.2572
v  -0.9366 15.0578 0.0000
v  -0.9860 15.1433 -0.2572
v  -1.1209 15.3769 -0.4456
v  -1.3051 15.6961 -0.5145
v  -1.4894 16.0152 -0.4456
v  -1.6243 16.2489 -0.2572
# 92 vertices

vn -0.6214 -0.4772 0.6214
vn -0.6214 -0.4772 -0.6214
vn 0.6214 -0.4772 -0.6214
vn 0.6214 -0.4772 0.6214
vn -0.5206 0.6768 0.5206
vn 0.5206 0.6768 0.5206
vn 0.5206 0.6768 -0.5206
vn -0.5206 0.6768 -0.5206
vn -0.0000 1.0000 0.0000
vn 0.0000 0.8047 0.5937
vn 0.4023 0.6969 0.5937
vn 0.5000 0.8660 0.0000
vn -0.0000 0.4158 0.9095
vn 0.2079 0.3601 0.9095
vn 0.0000 0.0306 0.9995
vn 0.0153 0.0265 0.9995
vn -0.0000 -0.3562 0.9344
vn -0.1781 -0.3085 0.9344
vn 0.0000 -0.7677 0.6408
vn -0.3838 -0.6648 0.6408
vn -0.0000 -1.0000 0.0000
vn -0.5000 -0.8660 0.0000
vn -0.0000 -0.7677 -0.6408
vn -0.3838 -0.6648 -0.6408
vn -0.0000 -0.3562 -0.9344
vn -0.1781 -0.3085 -0.9344
vn 0.0000 0.0306 -0.9995
vn 0.0153 0.0265 -0.9995
vn 0.0000 0.4158 -0.9095
vn 0.2079 0.3601 -0.9095
vn 0.0000 0.8047 -0.5937
vn 0.4023 0.6969 -0.5937
vn 0.6969 0.4023 0.5937
vn 0.8660 0.5000 0.0000
vn 0.3601 0.2079 0.9095
vn 0.0265 0.0153 0.9995
vn -0.3085 -0.1781 0.9344
vn -0.6648 -0.3838 0.6408
vn -0.8660 -0.5000 0.0000
vn -0.6648 -0.3838 -0.6408
vn -0.3085 -0.1781 -0.9344
vn 0.0265 0.0153 -0.9995
vn 0.3601 0.2079 -0.9095
vn 0.6969 0.4023 -0.5937
vn 0.7866 0.2108 0.5804
vn 0.9659 0.2588 0.0000
vn 0.4132 0.1107 0.9039
vn 0.0306 0.0082 0.9995
vn -0.3546 -0.0950 0.9302
vn -0.7519 -0.2015 0.6277
vn -0.9659 -0.2588 0.0000
vn -0.7519 -0.2015 -0.6277
vn -0.3546 -0.0950 -0.9302
vn 0.0306 0.0082 -0.9995
vn 0.4132 0.1107 -0.9039
vn 0.7866 0.2108 -0.5804
vn -0.9659 0.2588 0.0000
vn -0.7866 0.2108 0.5804
vn -0.6969 0.4023 0.5937
vn -0.8660 0.5000 0.0000
vn -0.4132 0.1107 0.9039
vn -0.3601 0.2079 0.9095
vn -0.0306 0.0082 0.9995
vn -0.0265 0.0153 0.9995
vn 0.3546 -0.0950 0.9302
vn 0.3085 -0.1781 0.9344
vn 0.7519 -0.2015 0.6277
vn 0.6648 -0.3838 0.6408
vn 0.9659 -0.2588 0.0000
vn 0.8660 -0.5000 0.0000
vn 0.7519 -0.2015 -0.6277
vn 0.6648 -0.3838 -0.6408
vn 0.3546 -0.0950 -0.9302
vn 0.3085 -0.1781 -0.9344
vn -0.0306 0.0082 -0.9995
vn -0.0265 0.0153 -0.9995
vn -0.4132 0.1107 -0.9039
vn -0.3601 0.2079 -0.9095
vn -0.7866 0.2108 -0.5804
vn -0.6969 0.4023 -0.5937
vn -0.4023 0.6969 0.5937
vn -0.5000 0.8660 0.0000
vn -0.2079 0.3601 0.9095
vn -0.0153 0.0265 0.9995
vn 0.1781 -0.3085 0.9344
vn 0.3838 -0.6648 0.6408
vn 0.5000 -0.8660 0.0000
vn 0.3838 -0.6648 -0.6408
vn 0.1781 -0.3085 -0.9344
vn -0.0153 0.0265 -0.9995
vn -0.2079 0.3601 -0.9095
vn -0.4023 0.6969 -0.5937
# 92 vertex normals

vt 1.0000 0.0000 0.0000
vt 1.0000 1.0000 0.0000
vt 0.0000 1.0000 0.0000
vt 0.0000 0.0000 0.0000
vt 0.0833 0.0000 0.0000
vt 0.0833 0.0833 0.0000
vt 0.0000 0.0833 0.0000
vt 0.1667 0.0000 0.0000
vt 0.1667 0.0833 0.0000
vt 0.2500 0.0000 0.0000
vt 0.2500 0.0833 0.0000
vt 0.3333 0.0000 0.0000
vt 0.3333 0.0833 0.0000
vt 0.4167 0.0000 0.0000
vt 0.4167 0.0833 0.0000
vt 0.5000 0.0000 0.0000
vt 0.5000 0.0833 0.0000
vt 0.5833 0.0000 0.0000
vt 0.5833 0.0833 0.0000
vt 0.6667 0.0000 0.0000
vt 0.6667 0.0833 0.0000
vt 0.7500 0.0000 0.0000
vt 0.7500 0.0833 0.0000
vt 0.8333 0.0000 0.0000
vt 0.8333 0.0833 0.0000
vt 0.9167 0.0000 0.0000
vt 0.9167 0.0833 0.0000
vt 1.0000 0.0833 0.0000
vt 0.0833 0.1667 0.0000
vt 0.0000 0.1667 0.0000
vt 0.1667 0.1667 0.0000
vt 0.2500 0.1667 0.0000
vt 0.3333 0.1667 0.0000
vt 0.4167 0.1667 0.0000
vt 0.5000 0.1667 0.0000
vt 0.5833 0.1667 0.0000
vt 0.6667 0.1667 0.0000
vt 0.7500 0.1667 0.0000
vt 0.8333 0.1667 0.0000
vt 0.9167 0.1667 0.0000
vt 1.0000 0.1667 0.0000
vt 0.0833 0.2500 0.0000
vt 0.0000 0.2500 0.0000
vt 0.1667 0.2500 0.0000
vt 0.2500 0.2500 0.0000
vt 0.3333 0.2500 0.0000
vt 0.4167 0.2500 0.0000
vt 0.5000 0.2500 0.0000
vt 0.5833 0.2500 0.0000
vt 0.6667 0.2500 0.0000
vt 0.7500 0.2500 0.0000
vt 0.8333 0.2500 0.0000
vt 0.9167 0.2500 0.0000
vt 1.0000 0.2500 0.0000
vt 0.0000 0.7500 0.0000
vt 0.0833 0.7500 0.0000
vt 0.0833 0.8333 0.0000
vt 0.0000 0.8333 0.0000
vt 0.1667 0.7500 0.0000
vt 0.1667 0.8333 0.0000
vt 0.2500 0.7500 0.0000
vt 0.2500 0.8333 0.0000
vt 0.3333 0.7500 0.0000
vt 0.3333 0.8333 0.0000
vt 0.4167 0.7500 0.0000
vt 0.4167 0.8333 0.0000
vt 0.5000 0.7500 0.0000
vt 0.5000 0.8333 0.0000
vt 0.5833 0.7500 0.0000
vt 0.5833 0.8333 0.0000
vt 0.6667 0.7500 0.0000
vt 0.6667 0.8333 0.0000
vt 0.7500 0.7500 0.0000
vt 0.7500 0.8333 0.0000
vt 0.8333 0.7500 0.0000
vt 0.8333 0.8333 0.0000
vt 0.9167 0.7500 0.0000
vt 0.9167 0.8333 0.0000
vt 1.0000 0.7500 0.0000
vt 1.0000 0.8333 0.0000
vt 0.0833 0.9167 0.0000
vt 0.0000 0.9167 0.0000
vt 0.1667 0.9167 0.0000
vt 0.2500 0.9167 0.0000
vt 0.3333 0.9167 0.0000
vt 0.4167 0.9167 0.0000
vt 0.5000 0.9167 0.0000
vt 0.5833 0.9167 0.0000
vt 0.6667 0.9167 0.0000
vt 0.7500 0.9167 0.0000
vt 0.8333 0.9167 0.0000
vt 0.9167 0.9167 0.0000
vt 1.0000 0.9167 0.0000
vt 0.0833 1.0000 0.0000
vt 0.1667 1.0000 0.0000
vt 0.2500 1.0000 0.0000
vt 0.3333 1.0000 0.0000
vt 0.4167 1.0000 0.0000
vt 0.5000 1.0000 0.0000
vt 0.5833 1.0000 0.0000
vt 0.6667 1.0000 0.0000
vt 0.7500 1.0000 0.0000
vt 0.8333 1.0000 0.0000
vt 0.9167 1.0000 0.0000
# 104 texture coords

o Box001
g Box001
usemtl wire_008061138
s 2
f 1/1/1 2/2/2 3/3/3 4/4/4 
s 4
f 5/4/5 6/1/6 7/2/7 8/3/8 
s 8
f 1/4/1 4/1/4 6/2/6 5/3/5 
s 16
f 4/4/4 3/1/3 7/2/7 6/3/6 
s 32
f 3/4/3 2/1/2 8/2/8 7/3/7 
s 64
f 2/4/2 1/1/1 5/2/5 8/3/8 
s 1
f 9/4/9 10/5/10 11/6/11 12/7/12 
f 10/5/10 13/8/13 14/9/14 11/6/11 
f 13/8/13 15/10/15 16/11/16 14/9/14 
f 15/10/15 17/12/17 18/13/18 16/11/16 
f 17/12/17 19/14/19 20/15/20 18/13/18 
f 19/14/19 21/16/21 22/17/22 20/15/20 
f 21/16/21 23/18/23 24/19/24 22/17/22 
f 23/18/23 25/20/25 26/21/26 24/19/24 
f 25/20/25 27/22/27 28/23/28 26/21/26 
f 27/22/27 29/24/29 30/25/30 28/23/28 
f 29/24/29 31/26/31 32/27/32 30/25/30 
f 31/26/31 9/1/9 12/28/12 32/27/32 
f 12/7/12 11/6/11 33/29/33 34/30/34 
f 11/6/11 14/9/14 35/31/35 33/29/33 
f 14/9/14 16/11/16 36/32/36 35/31/35 
f 16/11/16 18/13/18 37/33/37 36/32/36 
f 18/13/18 20/15/20 38/34/38 37/33/37 
f 20/15/20 22/17/22 39/35/39 38/34/38 
f 22/17/22 24/19/24 40/36/40 39/35/39 
f 24/19/24 26/21/26 41/37/41 40/36/40 
f 26/21/26 28/23/28 42/38/42 41/37/41 
f 28/23/28 30/25/30 43/39/43 42/38/42 
f 30/25/30 32/27/32 44/40/44 43/39/43 
f 32/27/32 12/28/12 34/41/34 44/40/44 
f 34/30/34 33/29/33 45/42/45 46/43/46 
f 33/29/33 35/31/35 47/44/47 45/42/45 
f 35/31/35 36/32/36 48/45/48 47/44/47 
f 36/32/36 37/33/37 49/46/49 48/45/48 
f 37/33/37 38/34/38 50/47/50 49/46/49 
f 38/34/38 39/35/39 51/48/51 50/47/50 
f 39/35/39 40/36/40 52/49/52 51/48/51 
f 40/36/40 41/37/41 53/50/53 52/49/52 
f 41/37/41 42/38/42 54/51/54 53/50/53 
f 42/38/42 43/39/43 55/52/55 54/51/54 
f 43/39/43 44/40/44 56/53/56 55/52/55 
f 44/40/44 34/41/34 46/54/46 56/53/56 
f 57/55/57 58/56/58 59/57/59 60/58/60 
f 58/56/58 61/59/61 62/60/62 59/57/59 
f 61/59/61 63/61/63 64/62/64 62/60/62 
f 63/61/63 65/63/65 66/64/66 64/62/64 
f 65/63/65 67/65/67 68/66/68 66/64/66 
f 67/65/67 69/67/69 70/68/70 68/66/68 
f 69/67/69 71/69/71 72/70/72 70/68/70 
f 71/69/71 73/71/73 74/72/74 72/70/72 
f 73/71/73 75/73/75 76/74/76 74/72/74 
f 75/73/75 77/75/77 78/76/78 76/74/76 
f 77/75/77 79/77/79 80/78/80 78/76/78 
f 79/77/79 57/79/57 60/80/60 80/78/80 
f 60/58/60 59/57/59 81/81/81 82/82/82 
f 59/57/59 62/60/62 83/83/83 81/81/81 
f 62/60/62 64/62/64 84/84/84 83/83/83 
f 64/62/64 66/64/66 85/85/85 84/84/84 
f 66/64/66 68/66/68 86/86/86 85/85/85 
f 68/66/68 70/68/70 87/87/87 86/86/86 
f 70/68/70 72/70/72 88/88/88 87/87/87 
f 72/70/72 74/72/74 89/89/89 88/88/88 
f 74/72/74 76/74/76 90/90/90 89/89/89 
f 76/74/76 78/76/78 91/91/91 90/90/90 
f 78/76/78 80/78/80 92/92/92 91/91/91 
f 80/78/80 60/80/60 82/93/82 92/92/92 
f 82/82/82 81/81/81 10/94/10 9/3/9 
f 81/81/81 83/83/83 13/95/13 10/94/10 
f 83/83/83 84/84/84 15/96/15 13/95/13 
f 84/84/84 85/85/85 17/97/17 15/96/15 
f 85/85/85 86/86/86 19/98/19 17/97/17 
f 86/86/86 87/87/87 21/99/21 19/98/19 
f 87/87/87 88/88/88 23/100/23 21/99/21 
f 88/88/88 89/89/89 25/101/25 23/100/23 
f 89/89/89 90/90/90 27/102/27 25/101/25 
f 90/90/90 91/91/91 29/103/29 27/102/27 
f 91/91/91 92/92/92 31/104/31 29/103/29 
f 92/92/92 82/93/82 9/2/9 31/104/31 
# 78 polygons

