# 3ds Max Wavefront OBJ Exporter v0.97b - (c)2007 guruware
# File Created: 01.12.2020 15:32:55

mtllib Weight.mtl

#
# object Box001
#

v  -1.318 0.000 1.318
v  -1.318 0.000 -1.318
v  1.318 0.000 -1.318
v  1.318 0.000 1.318
v  -0.894 2.172 0.894
v  0.894 2.172 0.894
v  0.894 2.172 -0.894
v  -0.894 2.172 -0.894
v  -0.024 2.642 0.000
v  -0.024 2.626 0.041
v  0.209 2.564 0.041
v  0.216 2.578 0.000
v  -0.024 2.584 0.070
v  0.187 2.527 0.070
v  -0.024 2.526 0.081
v  0.158 2.477 0.081
v  -0.024 2.468 0.070
v  0.129 2.427 0.070
v  -0.024 2.425 0.041
v  0.108 2.390 0.041
v  -0.024 2.409 0.000
v  0.100 2.376 0.000
v  -0.024 2.425 -0.041
v  0.108 2.390 -0.041
v  -0.024 2.468 -0.070
v  0.129 2.427 -0.070
v  -0.024 2.526 -0.081
v  0.158 2.477 -0.081
v  -0.024 2.584 -0.070
v  0.187 2.527 -0.070
v  -0.024 2.626 -0.041
v  0.209 2.564 -0.041
v  0.379 2.394 0.041
v  0.392 2.402 0.000
v  0.342 2.373 0.070
v  0.292 2.344 0.081
v  0.241 2.315 0.070
v  0.204 2.293 0.041
v  0.191 2.285 0.000
v  0.204 2.293 -0.041
v  0.241 2.315 -0.070
v  0.292 2.344 -0.081
v  0.342 2.373 -0.070
v  0.379 2.394 -0.041
v  0.441 2.161 0.041
v  0.457 2.161 0.000
v  0.399 2.161 0.070
v  0.340 2.161 0.081
v  0.282 2.161 0.070
v  0.240 2.161 0.041
v  0.224 2.161 0.000
v  0.240 2.161 -0.041
v  0.282 2.161 -0.070
v  0.340 2.161 -0.081
v  0.399 2.161 -0.070
v  0.441 2.161 -0.041
v  -0.504 2.161 0.000
v  -0.489 2.161 0.041
v  -0.427 2.394 0.041
v  -0.440 2.402 0.000
v  -0.446 2.161 0.070
v  -0.390 2.373 0.070
v  -0.388 2.161 0.081
v  -0.339 2.344 0.081
v  -0.330 2.161 0.070
v  -0.289 2.315 0.070
v  -0.287 2.161 0.041
v  -0.252 2.293 0.041
v  -0.272 2.161 0.000
v  -0.239 2.285 0.000
v  -0.287 2.161 -0.041
v  -0.252 2.293 -0.041
v  -0.330 2.161 -0.070
v  -0.289 2.315 -0.070
v  -0.388 2.161 -0.081
v  -0.339 2.344 -0.081
v  -0.446 2.161 -0.070
v  -0.390 2.373 -0.070
v  -0.489 2.161 -0.041
v  -0.427 2.394 -0.041
v  -0.256 2.564 0.041
v  -0.264 2.578 0.000
v  -0.235 2.527 0.070
v  -0.206 2.477 0.081
v  -0.177 2.427 0.070
v  -0.156 2.390 0.041
v  -0.148 2.376 0.000
v  -0.156 2.390 -0.041
v  -0.177 2.427 -0.070
v  -0.206 2.477 -0.081
v  -0.235 2.527 -0.070
v  -0.256 2.564 -0.041
# 92 vertices

vn 0.000 -1.000 -0.000
vn 0.000 1.000 -0.000
vn 0.000 0.192 0.981
vn 0.981 0.192 -0.000
vn 0.000 0.192 -0.981
vn -0.981 0.192 -0.000
vn -0.000 1.000 0.000
vn -0.000 0.805 0.594
vn 0.402 0.697 0.594
vn 0.500 0.866 0.000
vn -0.000 0.416 0.909
vn 0.208 0.360 0.909
vn 0.000 0.031 1.000
vn 0.015 0.027 1.000
vn 0.000 -0.356 0.934
vn -0.178 -0.308 0.934
vn 0.000 -0.768 0.641
vn -0.384 -0.665 0.641
vn -0.000 -1.000 -0.000
vn -0.500 -0.866 0.000
vn -0.000 -0.768 -0.641
vn -0.384 -0.665 -0.641
vn -0.000 -0.356 -0.934
vn -0.178 -0.308 -0.934
vn -0.000 0.031 -1.000
vn 0.015 0.027 -1.000
vn -0.000 0.416 -0.909
vn 0.208 0.360 -0.909
vn -0.000 0.805 -0.594
vn 0.402 0.697 -0.594
vn 0.697 0.402 0.594
vn 0.866 0.500 0.000
vn 0.360 0.208 0.909
vn 0.027 0.015 1.000
vn -0.308 -0.178 0.934
vn -0.665 -0.384 0.641
vn -0.866 -0.500 0.000
vn -0.665 -0.384 -0.641
vn -0.308 -0.178 -0.934
vn 0.027 0.015 -1.000
vn 0.360 0.208 -0.909
vn 0.697 0.402 -0.594
vn 0.787 0.211 0.580
vn 0.966 0.259 0.000
vn 0.413 0.111 0.904
vn 0.031 0.008 0.999
vn -0.355 -0.095 0.930
vn -0.752 -0.201 0.628
vn -0.966 -0.259 0.000
vn -0.752 -0.201 -0.628
vn -0.355 -0.095 -0.930
vn 0.031 0.008 -0.999
vn 0.413 0.111 -0.904
vn 0.787 0.211 -0.580
vn -0.966 0.259 0.000
vn -0.787 0.211 0.580
vn -0.697 0.402 0.594
vn -0.866 0.500 0.000
vn -0.413 0.111 0.904
vn -0.360 0.208 0.909
vn -0.031 0.008 0.999
vn -0.027 0.015 1.000
vn 0.355 -0.095 0.930
vn 0.308 -0.178 0.934
vn 0.752 -0.201 0.628
vn 0.665 -0.384 0.641
vn 0.966 -0.259 0.000
vn 0.866 -0.500 0.000
vn 0.752 -0.201 -0.628
vn 0.665 -0.384 -0.641
vn 0.355 -0.095 -0.930
vn 0.308 -0.178 -0.934
vn -0.031 0.008 -0.999
vn -0.027 0.015 -1.000
vn -0.413 0.111 -0.904
vn -0.360 0.208 -0.909
vn -0.787 0.211 -0.580
vn -0.697 0.402 -0.594
vn -0.402 0.697 0.594
vn -0.500 0.866 0.000
vn -0.208 0.360 0.909
vn -0.015 0.027 1.000
vn 0.178 -0.308 0.934
vn 0.384 -0.665 0.641
vn 0.500 -0.866 0.000
vn 0.384 -0.665 -0.641
vn 0.178 -0.308 -0.934
vn -0.015 0.027 -1.000
vn -0.208 0.360 -0.909
vn -0.402 0.697 -0.594
# 90 vertex normals

vt 1.000 0.000 0.000
vt 1.000 1.000 0.000
vt 0.000 1.000 0.000
vt 0.000 0.000 0.000
vt 0.083 0.000 0.000
vt 0.083 0.083 0.000
vt 0.000 0.083 0.000
vt 0.167 0.000 0.000
vt 0.167 0.083 0.000
vt 0.250 0.000 0.000
vt 0.250 0.083 0.000
vt 0.333 0.000 0.000
vt 0.333 0.083 0.000
vt 0.417 0.000 0.000
vt 0.417 0.083 0.000
vt 0.500 0.000 0.000
vt 0.500 0.083 0.000
vt 0.583 0.000 0.000
vt 0.583 0.083 0.000
vt 0.667 0.000 0.000
vt 0.667 0.083 0.000
vt 0.750 0.000 0.000
vt 0.750 0.083 0.000
vt 0.833 0.000 0.000
vt 0.833 0.083 0.000
vt 0.917 0.000 0.000
vt 0.917 0.083 0.000
vt 1.000 0.083 0.000
vt 0.083 0.167 0.000
vt 0.000 0.167 0.000
vt 0.167 0.167 0.000
vt 0.250 0.167 0.000
vt 0.333 0.167 0.000
vt 0.417 0.167 0.000
vt 0.500 0.167 0.000
vt 0.583 0.167 0.000
vt 0.667 0.167 0.000
vt 0.750 0.167 0.000
vt 0.833 0.167 0.000
vt 0.917 0.167 0.000
vt 1.000 0.167 0.000
vt 0.083 0.250 0.000
vt 0.000 0.250 0.000
vt 0.167 0.250 0.000
vt 0.250 0.250 0.000
vt 0.333 0.250 0.000
vt 0.417 0.250 0.000
vt 0.500 0.250 0.000
vt 0.583 0.250 0.000
vt 0.667 0.250 0.000
vt 0.750 0.250 0.000
vt 0.833 0.250 0.000
vt 0.917 0.250 0.000
vt 1.000 0.250 0.000
vt 0.000 0.750 0.000
vt 0.083 0.750 0.000
vt 0.083 0.833 0.000
vt 0.000 0.833 0.000
vt 0.167 0.750 0.000
vt 0.167 0.833 0.000
vt 0.250 0.750 0.000
vt 0.250 0.833 0.000
vt 0.333 0.750 0.000
vt 0.333 0.833 0.000
vt 0.417 0.750 0.000
vt 0.417 0.833 0.000
vt 0.500 0.750 0.000
vt 0.500 0.833 0.000
vt 0.583 0.750 0.000
vt 0.583 0.833 0.000
vt 0.667 0.750 0.000
vt 0.667 0.833 0.000
vt 0.750 0.750 0.000
vt 0.750 0.833 0.000
vt 0.833 0.750 0.000
vt 0.833 0.833 0.000
vt 0.917 0.750 0.000
vt 0.917 0.833 0.000
vt 1.000 0.750 0.000
vt 1.000 0.833 0.000
vt 0.083 0.917 0.000
vt 0.000 0.917 0.000
vt 0.167 0.917 0.000
vt 0.250 0.917 0.000
vt 0.333 0.917 0.000
vt 0.417 0.917 0.000
vt 0.500 0.917 0.000
vt 0.583 0.917 0.000
vt 0.667 0.917 0.000
vt 0.750 0.917 0.000
vt 0.833 0.917 0.000
vt 0.917 0.917 0.000
vt 1.000 0.917 0.000
vt 0.083 1.000 0.000
vt 0.167 1.000 0.000
vt 0.250 1.000 0.000
vt 0.333 1.000 0.000
vt 0.417 1.000 0.000
vt 0.500 1.000 0.000
vt 0.583 1.000 0.000
vt 0.667 1.000 0.000
vt 0.750 1.000 0.000
vt 0.833 1.000 0.000
vt 0.917 1.000 0.000
# 104 texture coords

o Box001
g Box001
usemtl wire_008061138
s 2
f 1/1/1 2/2/1 3/3/1 
f 3/3/1 4/4/1 1/1/1 
s 4
f 5/4/2 6/1/2 7/2/2 
f 7/2/2 8/3/2 5/4/2 
s 8
f 1/4/3 4/1/3 6/2/3 
f 6/2/3 5/3/3 1/4/3 
s 16
f 4/4/4 3/1/4 7/2/4 
f 7/2/4 6/3/4 4/4/4 
s 32
f 3/4/5 2/1/5 8/2/5 
f 8/2/5 7/3/5 3/4/5 
s 64
f 2/4/6 1/1/6 5/2/6 
f 5/2/6 8/3/6 2/4/6 
s 1
f 9/4/7 10/5/8 11/6/9 
f 11/6/9 12/7/10 9/4/7 
f 10/5/8 13/8/11 14/9/12 
f 14/9/12 11/6/9 10/5/8 
f 13/8/11 15/10/13 16/11/14 
f 16/11/14 14/9/12 13/8/11 
f 15/10/13 17/12/15 18/13/16 
f 18/13/16 16/11/14 15/10/13 
f 17/12/15 19/14/17 20/15/18 
f 20/15/18 18/13/16 17/12/15 
f 19/14/17 21/16/19 22/17/20 
f 22/17/20 20/15/18 19/14/17 
f 21/16/19 23/18/21 24/19/22 
f 24/19/22 22/17/20 21/16/19 
f 23/18/21 25/20/23 26/21/24 
f 26/21/24 24/19/22 23/18/21 
f 25/20/23 27/22/25 28/23/26 
f 28/23/26 26/21/24 25/20/23 
f 27/22/25 29/24/27 30/25/28 
f 30/25/28 28/23/26 27/22/25 
f 29/24/27 31/26/29 32/27/30 
f 32/27/30 30/25/28 29/24/27 
f 31/26/29 9/1/7 12/28/10 
f 12/28/10 32/27/30 31/26/29 
f 12/7/10 11/6/9 33/29/31 
f 33/29/31 34/30/32 12/7/10 
f 11/6/9 14/9/12 35/31/33 
f 35/31/33 33/29/31 11/6/9 
f 14/9/12 16/11/14 36/32/34 
f 36/32/34 35/31/33 14/9/12 
f 16/11/14 18/13/16 37/33/35 
f 37/33/35 36/32/34 16/11/14 
f 18/13/16 20/15/18 38/34/36 
f 38/34/36 37/33/35 18/13/16 
f 20/15/18 22/17/20 39/35/37 
f 39/35/37 38/34/36 20/15/18 
f 22/17/20 24/19/22 40/36/38 
f 40/36/38 39/35/37 22/17/20 
f 24/19/22 26/21/24 41/37/39 
f 41/37/39 40/36/38 24/19/22 
f 26/21/24 28/23/26 42/38/40 
f 42/38/40 41/37/39 26/21/24 
f 28/23/26 30/25/28 43/39/41 
f 43/39/41 42/38/40 28/23/26 
f 30/25/28 32/27/30 44/40/42 
f 44/40/42 43/39/41 30/25/28 
f 32/27/30 12/28/10 34/41/32 
f 34/41/32 44/40/42 32/27/30 
f 34/30/32 33/29/31 45/42/43 
f 45/42/43 46/43/44 34/30/32 
f 33/29/31 35/31/33 47/44/45 
f 47/44/45 45/42/43 33/29/31 
f 35/31/33 36/32/34 48/45/46 
f 48/45/46 47/44/45 35/31/33 
f 36/32/34 37/33/35 49/46/47 
f 49/46/47 48/45/46 36/32/34 
f 37/33/35 38/34/36 50/47/48 
f 50/47/48 49/46/47 37/33/35 
f 38/34/36 39/35/37 51/48/49 
f 51/48/49 50/47/48 38/34/36 
f 39/35/37 40/36/38 52/49/50 
f 52/49/50 51/48/49 39/35/37 
f 40/36/38 41/37/39 53/50/51 
f 53/50/51 52/49/50 40/36/38 
f 41/37/39 42/38/40 54/51/52 
f 54/51/52 53/50/51 41/37/39 
f 42/38/40 43/39/41 55/52/53 
f 55/52/53 54/51/52 42/38/40 
f 43/39/41 44/40/42 56/53/54 
f 56/53/54 55/52/53 43/39/41 
f 44/40/42 34/41/32 46/54/44 
f 46/54/44 56/53/54 44/40/42 
f 57/55/55 58/56/56 59/57/57 
f 59/57/57 60/58/58 57/55/55 
f 58/56/56 61/59/59 62/60/60 
f 62/60/60 59/57/57 58/56/56 
f 61/59/59 63/61/61 64/62/62 
f 64/62/62 62/60/60 61/59/59 
f 63/61/61 65/63/63 66/64/64 
f 66/64/64 64/62/62 63/61/61 
f 65/63/63 67/65/65 68/66/66 
f 68/66/66 66/64/64 65/63/63 
f 67/65/65 69/67/67 70/68/68 
f 70/68/68 68/66/66 67/65/65 
f 69/67/67 71/69/69 72/70/70 
f 72/70/70 70/68/68 69/67/67 
f 71/69/69 73/71/71 74/72/72 
f 74/72/72 72/70/70 71/69/69 
f 73/71/71 75/73/73 76/74/74 
f 76/74/74 74/72/72 73/71/71 
f 75/73/73 77/75/75 78/76/76 
f 78/76/76 76/74/74 75/73/73 
f 77/75/75 79/77/77 80/78/78 
f 80/78/78 78/76/76 77/75/75 
f 79/77/77 57/79/55 60/80/58 
f 60/80/58 80/78/78 79/77/77 
f 60/58/58 59/57/57 81/81/79 
f 81/81/79 82/82/80 60/58/58 
f 59/57/57 62/60/60 83/83/81 
f 83/83/81 81/81/79 59/57/57 
f 62/60/60 64/62/62 84/84/82 
f 84/84/82 83/83/81 62/60/60 
f 64/62/62 66/64/64 85/85/83 
f 85/85/83 84/84/82 64/62/62 
f 66/64/64 68/66/66 86/86/84 
f 86/86/84 85/85/83 66/64/64 
f 68/66/66 70/68/68 87/87/85 
f 87/87/85 86/86/84 68/66/66 
f 70/68/68 72/70/70 88/88/86 
f 88/88/86 87/87/85 70/68/68 
f 72/70/70 74/72/72 89/89/87 
f 89/89/87 88/88/86 72/70/70 
f 74/72/72 76/74/74 90/90/88 
f 90/90/88 89/89/87 74/72/72 
f 76/74/74 78/76/76 91/91/89 
f 91/91/89 90/90/88 76/74/74 
f 78/76/76 80/78/78 92/92/90 
f 92/92/90 91/91/89 78/76/76 
f 80/78/78 60/80/58 82/93/80 
f 82/93/80 92/92/90 80/78/78 
f 82/82/80 81/81/79 10/94/8 
f 10/94/8 9/3/7 82/82/80 
f 81/81/79 83/83/81 13/95/11 
f 13/95/11 10/94/8 81/81/79 
f 83/83/81 84/84/82 15/96/13 
f 15/96/13 13/95/11 83/83/81 
f 84/84/82 85/85/83 17/97/15 
f 17/97/15 15/96/13 84/84/82 
f 85/85/83 86/86/84 19/98/17 
f 19/98/17 17/97/15 85/85/83 
f 86/86/84 87/87/85 21/99/19 
f 21/99/19 19/98/17 86/86/84 
f 87/87/85 88/88/86 23/100/21 
f 23/100/21 21/99/19 87/87/85 
f 88/88/86 89/89/87 25/101/23 
f 25/101/23 23/100/21 88/88/86 
f 89/89/87 90/90/88 27/102/25 
f 27/102/25 25/101/23 89/89/87 
f 90/90/88 91/91/89 29/103/27 
f 29/103/27 27/102/25 90/90/88 
f 91/91/89 92/92/90 31/104/29 
f 31/104/29 29/103/27 91/91/89 
f 92/92/90 82/93/80 9/2/7 
f 9/2/7 31/104/29 92/92/90 
# 156 faces

